<?xml version="1.0" encoding="UTF-8"?><svg id="Layer_2" xmlns="http://www.w3.org/2000/svg" viewBox="0 0 1003.27 1003.27"><defs><style>.cls-1{font-family:HelveticaNeue-Medium, 'Helvetica Neue';font-size:48px;}.cls-2{font-size:45px;}.cls-2,.cls-3{font-family:HelveticaNeue, 'Helvetica Neue';}.cls-4{fill:none;stroke:#000;stroke-miterlimit:10;}.cls-3{font-size:40px;}</style></defs><g id="artboard4"><ellipse class="cls-4" cx="501.87" cy="501.52" rx="445" ry="450.17"/><g id="compass"><text class="cls-1" transform="translate(488.14 41.14)"><tspan x="0" y="0">N</tspan></text><text class="cls-1" transform="translate(153.19 200.14) rotate(-45)"><tspan x="0" y="0">NW</tspan></text><text class="cls-1" transform="translate(41.14 521.13) rotate(-90)"><tspan x="0" y="0">W</tspan></text><text class="cls-1" transform="translate(806.14 155.19) rotate(45)"><tspan x="0" y="0">NE</tspan></text><text class="cls-1" transform="translate(845.09 809.14) rotate(135)"><tspan x="0" y="0">SE</tspan></text><text class="cls-1" transform="translate(515.14 962.14) rotate(-180)"><tspan x="0" y="0">S</tspan></text><text class="cls-1" transform="translate(199.14 849.09) rotate(-135)"><tspan x="0" y="0">SW</tspan></text><circle id="dot" cx="899.79" cy="579.88" r="3.5"/><g id="bg"><ellipse class="cls-4" cx="501.87" cy="501.52" rx="430" ry="435"/></g><text class="cls-3" transform="translate(200.19 245.14) rotate(-45)"><tspan x="0" y="0">315</tspan></text><text class="cls-3" transform="translate(109.14 535.14) rotate(-90)"><tspan x="0" y="0">270</tspan></text><text class="cls-2" transform="translate(761.14 207.19) rotate(45)"><tspan x="0" y="0">45</tspan></text><text class="cls-3" transform="translate(491.14 104.14)"><tspan x="0" y="0">0</tspan></text><text class="cls-3" transform="translate(892.14 480.14) rotate(90)"><tspan x="0" y="0">90</tspan></text><text class="cls-3" transform="translate(804.09 757.14) rotate(135)"><tspan x="0" y="0">135</tspan></text><text class="cls-3" transform="translate(535.14 899.14) rotate(-180)"><tspan x="0" y="0">180</tspan></text><text class="cls-3" transform="translate(247.14 805.09) rotate(-135)"><tspan x="0" y="0">225</tspan></text><text class="cls-1" transform="translate(962.14 489.14) rotate(90)"><tspan x="0" y="0">E</tspan></text><circle id="dot-2" cx="659.14" cy="122.14" r="3.5"/><circle id="dot-3" cx="728.64" cy="160.64" r="3.5"/><circle id="dot-4" cx="877.77" cy="345.82" r="3.5"/><circle id="dot-5" cx="840.79" cy="274.82" r="3.5"/><circle id="dot-6" cx="877.78" cy="657.93" r="3.5"/><circle id="dot-7" cx="840.79" cy="726.96" r="3.5"/><circle id="dot-8" cx="658.72" cy="879.99" r="3.5"/><circle id="dot-9" cx="582.71" cy="904.01" r="3.5"/><circle id="dot-10" cx="422.65" cy="905.01" r="3.5"/><circle id="dot-11" cx="344.65" cy="881.01" r="3.5"/><circle id="dot-12" cx="125.64" cy="656.99" r="3.5"/><circle id="dot-13" cx="103.55" cy="580.91" r="3.5"/><circle id="dot-14" cx="103.55" cy="422.86" r="3.5"/><circle id="dot-15" cx="126.58" cy="345.85" r="3.5"/><circle id="dot-16" cx="162.57" cy="274.82" r="3.5"/><circle id="dot-17" cx="274.54" cy="161.77" r="3.5"/><circle id="dot-18" cx="345.57" cy="122.77" r="3.5"/><circle id="dot-19" cx="421.59" cy="98.75" r="3.5"/><circle id="dot-20" cx="274.61" cy="842" r="3.5"/><circle id="dot-21" cx="163.57" cy="728.96" r="3.5"/><circle id="dot-22" cx="729.75" cy="842" r="3.5"/><circle id="dot-23" cx="900.81" cy="421.86" r="3.5"/><circle id="dot-24" cx="581.64" cy="98.64" r="3.5"/><g><path d="M809.26,197.34l11.08-11.08-2.83-2.83-11.04,11.04c.94,.95,1.87,1.9,2.79,2.86Z"/><path d="M194.86,806.09l-10.92,10.92,2.83,2.83,10.89-10.88c-.94-.95-1.87-1.9-2.8-2.86Z"/></g><g><path d="M636.93,88.42l4.74-14.6-.95-.31-4.74,14.59c.32,.11,.63,.21,.95,.32Z"/><path d="M604.15,78.9l3.53-14.71-.97-.23-3.53,14.71c.32,.08,.65,.15,.97,.23Z"/><path d="M501.87,66.52c.76,0,1.52,.01,2.27,.01v-14.39c0-.28-.22-.5-.5-.5h-3c-.28,0-.5,.22-.5,.5v14.39c.58,0,1.15-.01,1.73-.01Z"/><path d="M536.78,67.94l1.17-14.87-1-.08-1.17,14.87c.33,.03,.66,.06,1,.08Z"/><path d="M570.68,72.06l2.35-14.81-.99-.16-2.35,14.81c.33,.05,.66,.11,.99,.16Z"/><path d="M757.17,151.46l8.99-12.38-.81-.59-8.99,12.37c.27,.2,.53,.4,.8,.6Z"/><path d="M729.14,132.17l8.03-13.11-.85-.52-8.03,13.1c.28,.18,.57,.35,.85,.53Z"/><path d="M699.62,115.16l7.26-14.25-.89-.45-7.25,14.23c.3,.15,.59,.31,.89,.47Z"/><path d="M670.21,101.12l5.99-14.46-3.7-1.53-5.98,14.43c1.23,.52,2.46,1.04,3.68,1.56Z"/><path d="M467.52,935.14l-1.19,15.07,1,.08,1.19-15.06c-.33-.03-.66-.06-1-.08Z"/><path d="M400.16,924.27l-3.56,14.81,.97,.23,3.56-14.81c-.32-.08-.65-.15-.97-.23Z"/><path d="M433.62,931.06l-2.37,14.96,.99,.16,2.37-14.96c-.33-.05-.66-.11-.99-.16Z"/><path d="M367.37,914.8l-4.76,14.65,.95,.31,4.76-14.64c-.32-.1-.63-.21-.95-.32Z"/><path d="M501.87,936.52c-.58,0-1.15,0-1.73-.01v14.63c0,.28,.22,.5,.5,.5h3c.28,0,.5-.22,.5-.5v-14.64c-.76,0-1.52,.01-2.27,.01Z"/><path d="M334.08,902.15l-5.99,14.47,3.7,1.53,5.98-14.44c-1.23-.51-2.46-1.03-3.69-1.56Z"/><path d="M275.1,871.17l-7.99,13.04,.85,.52,7.98-13.03c-.28-.18-.57-.35-.85-.53Z"/><path d="M304.64,888.15l-7.24,14.21,.89,.45,7.23-14.2c-.3-.15-.59-.31-.89-.47Z"/><path d="M247.03,851.92l-8.91,12.27,.81,.59,8.91-12.26c-.27-.2-.53-.4-.8-.6Z"/></g><g><path d="M305.43,114.46l-6.68-13.12-.89,.45,6.69,13.13c.3-.15,.59-.31,.89-.47Z"/><path d="M337.68,99.36l-5.9-14.23-3.7,1.53,5.91,14.26c1.22-.53,2.45-1.04,3.68-1.56Z"/><path d="M275.84,131.39l-7.62-12.43-.85,.52,7.62,12.43c.28-.18,.57-.35,.85-.53Z"/><path d="M401.08,78.54l-3.5-14.59-.97,.23,3.5,14.59c.32-.08,.65-.15,.97-.23Z"/><path d="M368.25,87.93l-4.69-14.43-.95,.31,4.69,14.43c.32-.11,.63-.21,.95-.32Z"/><path d="M197.54,194.2l-10.41-10.41-2.83,2.83,10.45,10.45c.93-.96,1.86-1.91,2.8-2.86Z"/><path d="M247.72,150.6l-8.79-12.1-.81,.59,8.8,12.11c.27-.2,.53-.4,.8-.6Z"/><path d="M221.21,171.94l-9.32-10.91-.76,.65,9.32,10.92c.25-.22,.5-.44,.76-.65Z"/><path d="M570.68,72.06l2.35-14.81-.99-.16-2.35,14.81c.33,.05,.66,.11,.99,.16Z"/><path d="M851.59,248.37l12.48-9.07-.59-.81-12.47,9.06c.19,.27,.39,.54,.58,.81Z"/><path d="M886.31,306.45l13.45-6.85-.45-.89-13.44,6.85c.15,.3,.3,.6,.45,.89Z"/><path d="M870.08,276.75l13.02-7.98-.52-.85-13.01,7.97c.17,.29,.34,.57,.51,.86Z"/><path d="M900.73,338.7l14.23-5.89-1.53-3.7-14.2,5.88c.51,1.23,1.01,2.47,1.5,3.71Z"/><path d="M134.31,275.64l-12.18-7.47-.52,.85,12.19,7.47c.17-.29,.34-.57,.51-.86Z"/><path d="M468.5,67.81l-1.17-14.82-1,.08,1.17,14.83c.33-.03,.66-.06,1-.08Z"/><path d="M783.59,172.87l10.21-11.96-.76-.65-10.2,11.95c.25,.22,.5,.44,.75,.66Z"/><path d="M830.93,221.48l11.44-9.77-.65-.76-11.43,9.76c.21,.26,.42,.51,.64,.77Z"/><path d="M869.47,727.32l12.69,7.78,.52-.85-12.7-7.78c-.17,.29-.34,.57-.51,.86Z"/><path d="M698.64,888.39l6.9,13.53,.89-.45-6.9-13.54c-.29,.15-.59,.31-.88,.47Z"/><path d="M666.44,903.51l6.06,14.64,3.7-1.53-6.08-14.67c-1.22,.53-2.45,1.05-3.68,1.56Z"/><path d="M728.18,871.46l7.88,12.85,.85-.52-7.88-12.86c-.28,.18-.57,.35-.85,.53Z"/><path d="M635.91,914.96l4.81,14.81,.95-.31-4.81-14.82c-.32,.11-.63,.21-.95,.32Z"/><path d="M806.35,808.67l10.81,10.81,2.83-2.83-10.84-10.84c-.93,.96-1.86,1.91-2.79,2.86Z"/><path d="M103.17,664.73l-13.84,5.73,1.53,3.7,13.82-5.72c-.51-1.23-1.01-2.47-1.51-3.71Z"/><path d="M756.26,852.25l9.1,12.52,.81-.59-9.11-12.53c-.27,.2-.53,.4-.8,.6Z"/><path d="M782.72,830.92l9.67,11.32,.76-.65-9.68-11.33c-.25,.22-.5,.44-.75,.66Z"/><path d="M603.12,924.38l3.59,14.94,.97-.23-3.59-14.94c-.32,.08-.65,.15-.97,.23Z"/><path d="M152.45,755.08l-12.23,8.89,.59,.81,12.22-8.88c-.19-.27-.39-.54-.58-.81Z"/><path d="M133.9,726.71l-12.72,7.8,.52,.85,12.72-7.79c-.17-.29-.34-.57-.52-.86Z"/><path d="M117.63,696.99l-13.11,6.68,.45,.89,13.1-6.67c-.15-.3-.3-.6-.45-.9Z"/><path d="M173.15,781.96l-11.24,9.6,.65,.76,11.23-9.59c-.21-.26-.43-.51-.64-.77Z"/><path d="M535.76,935.18l1.19,15.11,1-.08-1.19-15.11c-.33,.03-.66,.06-1,.08Z"/><path d="M433.62,931.06l-2.37,14.96,.99,.16,2.37-14.96c-.33-.05-.66-.11-.99-.16Z"/><path d="M220.58,830.54l-10.09,11.82,.76,.65,10.09-11.81c-.25-.22-.51-.44-.76-.65Z"/></g><g><path d="M117.98,305.34l-13-6.63-.45,.89,13.01,6.63c.15-.3,.3-.6,.45-.89Z"/><path d="M92.5,368.01l-13.43-4.36-.31,.95,13.44,4.37c.1-.32,.2-.64,.3-.95Z"/><path d="M104.59,334.8l-13.27-5.5-1.53,3.7,13.3,5.51c.5-1.24,1-2.47,1.5-3.71Z"/><path d="M71.87,501.52c0-.62,0-1.24,.01-1.86h-14.74v3.96h14.74c0-.7-.01-1.4-.01-2.1Z"/><path d="M77.05,433.8l-14.35-2.27-.16,.99,14.35,2.27c.05-.33,.1-.66,.16-.99Z"/><path d="M73.17,467.37l-14.62-1.15-.08,1,14.62,1.15c.02-.33,.05-.66,.08-1Z"/><path d="M83.5,400.62l-13.95-3.35-.23,.97,13.95,3.35c.08-.32,.15-.65,.23-.97Z"/><path d="M152.91,247.29l-12.11-8.8-.59,.81,12.12,8.8c.19-.27,.39-.54,.58-.81Z"/><path d="M926.85,434.87l14.89-2.36-.16-.99-14.89,2.36c.05,.33,.11,.66,.16,.99Z"/><path d="M570.68,72.06l2.35-14.81-.99-.16-2.35,14.81c.33,.05,.66,.11,.99,.16Z"/><path d="M920.49,401.71l14.47-3.47-.23-.97-14.47,3.47c.08,.32,.15,.65,.23,.97Z"/><path d="M434.57,71.82l-2.33-14.72-.99,.16,2.33,14.72c.33-.05,.66-.11,.99-.16Z"/><path d="M173.68,220.44l-11.49-9.81-.65,.76,11.5,9.82c.21-.26,.43-.51,.64-.77Z"/><path d="M911.58,369.13l14.89-4.84-.31-.95-14.88,4.83c.1,.32,.2,.64,.3,.95Z"/><path d="M885.77,697.66l13.54,6.9,.45-.89-13.55-6.9c-.15,.3-.3,.6-.45,.9Z"/><path d="M920.21,602.52l14.52,3.49,.23-.97-14.53-3.49c-.08,.32-.15,.65-.23,.97Z"/><path d="M76.93,568.48l-14.39,2.28,.16,.99,14.39-2.28c-.05-.33-.1-.66-.16-.99Z"/><path d="M911.21,635.08l13.99,4.55,.31-.95-14-4.55c-.1,.32-.2,.64-.3,.95Z"/><path d="M926.66,569.38l14.93,2.36,.16-.99-14.93-2.36c-.05,.33-.1,.66-.16,.99Z"/><path d="M931.85,499.66c0,.62,.01,1.24,.01,1.86,0,.7,0,1.4-.01,2.1h15.29v-3.96h-15.29Z"/><path d="M930.54,535.85l15.19,1.2,.08-1-15.19-1.2c-.02,.33-.05,.66-.08,1Z"/><path d="M899.14,668.24l13.82,5.73,1.53-3.7-13.85-5.74c-.5,1.24-1,2.47-1.5,3.71Z"/><path d="M92.27,634.28l-14.46,4.7,.31,.95,14.45-4.69c-.1-.32-.2-.64-.3-.95Z"/><path d="M83.33,601.67l-14.01,3.36,.23,.97,14-3.36c-.08-.32-.15-.65-.23-.97Z"/><path d="M433.62,931.06l-2.37,14.96,.99,.16,2.37-14.96c-.33-.05-.66-.11-.99-.16Z"/><path d="M850.89,755.64l12.59,9.14,.59-.81-12.59-9.15c-.19,.27-.39,.54-.58,.81Z"/><path d="M569.66,931.13l2.38,15.04,.99-.16-2.38-15.05c-.33,.05-.66,.11-.99,.16Z"/><path d="M830.17,782.46l11.93,10.19,.65-.76-11.94-10.2c-.21,.26-.43,.51-.64,.77Z"/></g><g><path d="M931.86,501.14c0,.13,0,.25,0,.38,0,.21,0,.41,0,.62h15.78v-1h-15.78Z"/><path d="M71.87,501.52c0-.13,0-.25,0-.38h-15.23v1h15.23c0-.21,0-.41,0-.62Z"/><path d="M930.64,468.41l15.17-1.19-.08-1-15.17,1.19c.03,.33,.05,.66,.08,1Z"/><path d="M73.11,534.9l-14.64,1.15,.08,1,14.64-1.15c-.03-.33-.06-.66-.08-1Z"/></g></g></g></svg>