<?xml version="1.0" encoding="UTF-8"?><svg id="Layer_2" xmlns="http://www.w3.org/2000/svg" viewBox="0 0 242.8 256.3"><g id="Layer_1-2"><path d="M12.87,147.67c-4.15,3.39-10.26,5.05-12.87,9.88,5.07,2.44,11.7-5.17,16.84-6.76l.61,.57c-.73,3.64-12.9,10.5-10.07,13.01,2.02,3.78,14.95-11.74,22.04-12.94,.22,.21,.44,.42,.66,.64-.9,4.28-2.69,11.73,3.67,12.07,.21,.01,.79-1.07,.67-1.49-1.24-6.45,2.93-18.17,7.37-23.2,8.81-8.86,17.28-16.9,28.6-22.49,11.21-9.31,24.57-13.92,37.66-19.98,.58,7.64-4.59,13.35-6.9,20.25-1.31,3.16-1.68,6.53-3.59,9.65-4.46,8.86-7.46,19.01-13.33,26.91-10.47,14.54-4.08,32.62-3.51,48.92,.59,17.65,5.83,35.89,6.7,53.6h42.25c4.15-22.89,12.35-85.4,13.25-85.13,7.2-24.95,31.17-53.3,39.33-79.36,.98-7.39,10.72-3.68,15.94-4.75,10.38-1.44,45.34,1.92,44.58-13.09,.31-9.79-3.73-30.76-6.03-39.12-.53-4.12-.5-8.33-1.09-12.43-.77-4.45-4.6-7.18-6.55-11-1.89-2.01-2.93,.59-2.78,2.73-2.06-2.25-3.77-1.38-5.89-.54-1.85,.73-4.13,.34-5.22,2.97-1.37-4.09,.69-8.31-2-10.5-9.68-5.22-27.15-9.27-36.79-2.61-11.75,7.02-8.4,22.29-12.26,33-3.36,2.71-5.63,2.48-11.63,3.42-9.87,1.99-20.66,2.18-29.39,7.62-18.46,11.97-33.3,29.55-53,40.1-16.8,9.29-26.56,24.64-39.72,38.45-4.08,4.23-9.28,6.31-14.71,8.5-3.34,1.62-7.9,.27-10.74,3.05,2.53,2.9,6.34,.46,9.31,2.29-1.64,3.33-15.48,7.02-13.86,10.41,1.21,2.13,3.21,.05,4.79-.65,2.75-1.22,5.49-2.46,8.24-3.69,.02,.89-.19,1.44-.59,1.7ZM193.56,58.2c5.33-1.48,18.15,5.58,16.19-4.59,.16-2.05,5.49-1.61,2.09-5.42,1.88-1.61,4.57-2.05,3.89-5.12-1.41-5.01,7.29-1.72,4.42-7.18-1.28-2.91-3.86-4.89-4.65-8.07,2.63,1.92,7.75,3.82,8.83,8.2,.54,8.58-.33,17.27-3.41,25.35-2.33,4.18-6.04,2.09-10.46,1.5-4.08-.6-5.28,.13-10.01-1.72-3.68-.43-4.57-1.54-7.25-1.41,.04-.24,.32-1.31,.36-1.55Z"/></g></svg>