<?xml version="1.0" encoding="UTF-8"?><svg id="Layer_2" xmlns="http://www.w3.org/2000/svg" viewBox="0 0 216.6 469.4"><g id="Layer_1-2"><path d="M163.66,123.05c.43-.9,.88-1.77,1.35-2.56,19.62-31.05,34.84-65.34,51-98.11,.21-7.06,3.18-19.16-6.42-20.64-1.59-.23-2.84,.21-3.86,1.1-4.11,2.35-4.87,11.11-7.06,15.43-3.74-1.67-7.18-3.22-10.62-4.75,.08,.36,.18,.71,.29,1.06-.37-.16-.73-.33-1.1-.49,1.99,8.87,12.92,14.28,7.32,22.77-14.58,24.12-25.04,52.51-48.74,69.35-.59,.37-1.16,.76-1.73,1.17-3.63,2.48-6.79,5.75-10.4,8.36-.46,.32-.93,.63-1.41,.92-7.29-11.25,6.86-15.21-2.6-26.5-2.02-2.66-3.67-5.85-4.58-9.06-2.54-8.96-16.38-15.33-24.01-10.3-1.11,.64-2.14,1.31-3.11,2-11.77,7.9-13.58,18.86-11.07,32.84-6.26-4.34-10.71-13.51-15.26-19.46-12.42-13.4-25.26-26.41-37.9-39.6-11.15-10.59-1.84-17.55-13.96-29.68-1.23,.76-2.24,1.4-2.43,1.51C12.04,12.01,7.06,6,2.07,0c-.42,.27-.84,.54-1.26,.8v.04l-.81,.52C4.93,17.58,13.22,33.57,20.59,48.88c12.93,17.16,27.66,33.37,39.23,51.42,8.77,13.72,15.77,28.29,20.48,44.02,13.95,30.75,14.22,64.8,9.55,97.69-4.07,24.28-9.55,48.37-12.4,72.81-.84,4.07-1.72,8.13-2.6,12.01-6.09,16.71-9.7,34.61-12.13,52.21-1.08,10.53-.93,21.18-2.03,31.71-1.8,9.8,7.43,18.86,4.54,28.5-2.37,8.08,.03,14.19,3.94,20.59,5.63,13.56,33.2,12.44,25.27-1.73-14.8-13.18-8.2-27.81-12.6-44.2,1.55-5.79,2.97-12.44,3.97-19.86,1-7.46,1.37-14.3,1.4-20.32,.56-3.26,1.44-6.9,2.85-10.76,.47-1.29,.97-2.52,1.48-3.68,.4-.41,1.96-4.97,4.13-11.47,1.61-3.43,3.4-7.39,4.7-11.33,3.74-16.39,14.67-29.28,15.35-30.08l.03-.04c8.81-16.11,10.37-16.22,11.01-16.09,2.97,.6,3.54,9.88,4.24,21.18,.65,12.26-.16,24.14,1.37,36.09h.18c-.15,2.52-.25,4.69-.28,6.39-1.91,12.8,2.12,24.37,4.5,36.59,.62,5.09,.11,10.66,2.09,15.13,2,4.52,2.13,8.42,1.09,12.82-.82,5.73-5.64,14.29,2.71,16.6,4.72,1.39,9.25,3.64,13.6,5.99,6.74,3.65,13.81,4.61,21.24,3.57,11.62-1.8-1.54-10.71-4.73-14.72-7.31-8.86-15.75-19.49-11.6-31.62-.79-13.41-7.63-34.71-1.51-46.74,1.01-8.24,2.24-20.59,2.67-35.63,.23-8.27,.17-15.78-.09-22.73,1-20.16,1.02-40.75-2.72-58.27-3.02-19.02-4.75-45.15-3.73-68.34,1.42-13.54,3.85-28.37,7.87-43.56Z"/></g></svg>