<?xml version="1.0" encoding="UTF-8"?><svg id="Layer_2" xmlns="http://www.w3.org/2000/svg" viewBox="0 0 133.86 208.35"><defs><style>.cls-1{fill:#020202;}</style></defs><g id="Layer_1-2"><path class="cls-1" d="M14.7,69.15C32.11,39.06,46.06,16.39,78.5,3.36c15.39-7.2,56.2-1.84,55.34,6.78-4.94,12.03-8.76,24.33-9.79,38.96-.88,12.83,.04,24.82,3.39,36.99,2.38,13.33,7.02,18.16,4.71,24-1.26,1.94-2.83,1.31-9.6,3.95-21.18,8.51-41.7,29.92-51.76,52.61,5.83,2.37,14.65,2.77,17.32,6.68,0,.59-.15,2.23,0,2.26-1.28,5.34-.98,4.21-16.94,6.12,.06,1.61,.21,26.26-.21,26.28-.5,.03-5.01,.35-6.78,.35-.09-8.75-.17-17.51-.26-26.26-8.99,.34-64.86-2.45-63.91-15.53,4.3-4.87,29.24,2,33.22-.94-8.89-4.73-19.55-3.9-23.06-25.6-5.67-24.16-7.12-45.02,4.52-70.87Z"/></g></svg>