<?xml version="1.0" encoding="UTF-8"?><svg id="Layer_2" xmlns="http://www.w3.org/2000/svg" viewBox="0 0 349.38 201.18"><defs><style>.cls-1{fill:#1d1d1b;}.cls-2{fill:none;stroke:#1d1d1b;stroke-miterlimit:10;stroke-width:20px;}</style></defs><g id="Layer_1-2"><path class="cls-1" d="M104.67,171.11c-.61-.66-2.56-2.7-3.01-3.2-1.21-1.33-2.92-4.7-4.14-6.02-3.15-3.42-3.42-7.52-5.03-11.56-3.01-7.57-5.94-15.16-8.62-22.82-.82-2.34-.77-4.92-1.04-7.39-.32-2.87-.66-5.73-.93-8.6-.49-5.19-1.11-10.36-1.56-15.55-.43-5.06-.8-10.13-1.15-15.2,0-.07,0-.13,0-.2-.04-6.85-.05-13.7-.11-20.54,0-.49-.08-1.04-.34-1.46-3.1-5.14-5.24-10.61-7.29-16.11-1.19-3.21-2.81-6.31-4.14-9.48-.81-1.95-1.51-3.94-2.12-5.94-.4-1.31,.57-3.26,1.82-2.68s5.65,8.76,8.47,13.14l.2-.05c-.24-.84-.48-1.68-.73-2.51-1.01-3.35-2.03-6.71-3.05-10.06-.58-1.9-1.82-5.68-1.15-7.71s1.07-2.39,2.84-2,5.38,13.34,8.03,19.92h.33c.02-.27,.11-.55,.05-.81-1.11-4.64-2.27-9.26-3.35-13.9-.48-2.07-.47-1.64-.89-3.72-.16-.79-.05-3.39,.55-4.35,.9-.95,1.65-1.68,2.79-1.4s1.57,2.39,1.85,3.48c.91,3.61,1.81,7.21,2.71,10.82,.65,2.59,1.27,5.18,1.94,7.77,.09,.33,.39,.62,.6,.93l.24-.13c0-1.94,.15-3.89-.03-5.82-.43-4.55-1.01-9.1-1.53-13.65-.1-.88,.29-1.34,1.29-1.3,.8,.03,1.07,.1,1.84,.31,.25,.07,.97,1,1.04,1.27,1.08,4.18,2.13,7.92,3.24,12.09,1.43,5.33,2.94,10.64,4.42,15.96,.04,.16,.11,.31,.2,.56,.95-1.48,1.85-2.87,2.75-4.25,.04-.07,.09-.13,.13-.19,1.97-2.65,4.29-5.1,6.72-3.39,.51,.51,.29,1.95-.02,2.64-1.6,3.6-3.3,7.18-4.76,10.82-1.29,3.23-3.6,5.81-6.42,8.06-1.29,1.03-1.45,1.99-1.13,3.38,1.68,7.3,3.27,14.62,4.85,21.94,.99,4.57,2.02,9.14,2.83,13.74,1.06,6.05,2.04,12.11,2.81,18.2,.38,3.03,1.66,5.7,3.18,8.36,2.55,4.44,5.23,8.83,7.6,13.34,2.55,4.86,4.8,9.85,7.21,14.77,.18,.36,.48,.66,.87,.86,8.95,4.55,17.91,9.07,26.88,13.61,1.21,.61,2.41,1.22,3.86,1.96-.61-1.27-1.1-2.34-1.64-3.4-1.59-3.12-3.21-6.23-4.78-9.35-.28-.56-.45-1.2-1.24-1.06-1.01,.18-1.51-.31-2.31-.9-2.12-1.56-2.67-2.88-3.76-5.1-.92-1.88-1.84-5.71,.42-6.65-.92-3.28-.85-.96-1.13-4.02-.14-2.9,.4-2.7-.24-4.26-1.18-2.9,1.03-4.96,1.74-7.83,.39-1.59,1.68-3.96,2.76-5.29,1.75-2.15,.26-.91,4.34-4.1,5.89-2.85,1.32-1.63,10.92-4.4,.23-.12,5.95-.53,6.21-.5,5.85,.77,7.53,.16,12.8,2.29,7.34,3.75,4.35,1.66,7.91,5.06,2.07,2.31,2.71,5.63,4.28,8.2,1.25,2.06,.8,3.16,1.23,6.24,.21,2.62,.95,4.53,.56,6.55,.54,.07-1.01-.29-.48-.23,1.26,.13,1.77,.49,1.96,1.52,.25,1.35,.33,2.18,.28,3.55-.04,1.17-.51,2.21-.78,3.37-.29,1.26-1.43,2.73-2.75,3-1.54,.31-1.83,1.31-2.44,2.52-.75,1.47-1.6,2.9-2.46,4.32-.46,.75-.56,1.51-.24,2.29,1.13,2.78,2.29,5.56,3.44,8.34l.5,.09c.62-.61,1.2-1.25,1.86-1.82,7.05-6.14,14.12-12.26,21.18-18.39,.25-.22,.48-.47,.77-.64,2.56-1.52,2.45-4.04,3.02-6.26,1.71-6.76,3.59-13.46,6.99-19.77,.69-1.27,1.26-2.6,1.8-3.93,.16-.39,.09-.88-.01-1.3-1.16-4.96-2.3-9.93-3.53-14.88-1.31-5.25-1.94-10.61-1.98-15.99-.09-11.23-.23-22.47-.34-33.7,0-.47-.3-.9-.78-1.14-1.46-.73-2.85-1.55-4.3-2.31-2.65-1.39-4.54-3.42-6.31-5.57-3.24-3.95-5.25-5.94-8.53-9.87-.55-.73-1.71-2.85-.88-3.31,1.87-1.13,4.69-.68,6.69,.62,1.11,.72,2.07,1.62,3.08,2.45,1.31,1.08,2.62,2.18,3.92,3.26l.22-.08c0-.78,.02-1.55,0-2.33-.16-4.37-.23-8.75-.52-13.11-.2-3.15-.68-6.29-1.04-9.43-.1-.9-.21-1.2-.28-2.1-.02-.25-.09-1,.26-1.45s.79-1.46,2-2.31c1.09-.76,1.72-.33,2.59,.39,.78,.67,2.78,11.85,3.89,17.77,.11,.58,.38,1.13,.57,1.71,.76,0,.75-.43,.74-.86-.1-3.41-.19-6.83-.3-10.24-.12-3.81-.19-6.65-.32-10.45,.02-.95,.39-1.59,.66-1.79,.65-.49,1.41-.43,2.22-.27,1.91,.37,2.6,.43,2.73,2.11,.24,3.07,.53,6.14,.7,9.21,.21,3.8,.32,7.61,.5,11.42,.01,.31,.24,.61,.37,.92l.33-.07c.89-7.14,1.86-12.72,2.77-19.95,.35-2.6,3.18-.86,4.26,.31,.58,1.07,.46,1.33,.43,1.77-.25,4.62-.54,8.8-.85,13.41-.11,1.66-.28,3.32-.45,4.98-.09,.86,.77,.89,1.37,1.33,1.58-5.28,2.98-9.16,4.52-14.31,.77-1.72,2.87-.51,2.85,.78-.04,2.03-.18,4.06-.47,6.07-.36,2.52-.96,5-1.37,7.51-.19,1.17-.18,2.36-.26,3.54-.19,2.82-.13,5.67-.62,8.44-.54,3.03-1.62,5.99-2.4,9-.13,.5-.12,1.02,.01,1.51,2.27,8.45,4.73,16.87,6.82,25.36,1,4.03,1.4,8.19,1.94,12.3,.58,4.39,1.09,8.8,1.45,13.21,.56,6.86,1.68,13.63,3.38,20.34,.39,1.56,.21,3.25,.11,4.87-.2,3.17-.46,6.34-.8,9.51-.57,5.29-.86,10.64-2.63,15.75-1.21,3.49-6.31,12.54-8.05,15.87-1.31,2.51-17.78-7.87-41.98,16.73-8.47,8.61-10.58-8.46-26.54-9.79-9.04-.75-23.47-3.88-31.62-4.01-9.17-.15-12.38,21.62-19.01,21.51-13.44-.22-15.77-12.75-17.51-18.64Z"/><path class="cls-2" d="M.08,163.14c19.39-.16,19.62,28.19,39.01,28.03,19.39-.16,19.16-28.5,38.55-28.66,19.39-.16,19.61,28.19,39,28.03,19.39-.16,19.16-28.5,38.55-28.66,19.39-.16,19.62,28.19,39,28.03,19.39-.16,19.16-28.5,38.55-28.66,19.39-.16,19.62,28.19,39.01,28.03,19.39-.16,19.16-28.5,38.55-28.66s19.62,28.19,39.01,28.03"/><path class="cls-1" d="M155.47,168.4c-1.59-3.6-3.21-7.18-4.78-10.78-.28-.65-.45-1.39-1.24-1.23-1.01,.21-1.51-.36-2.31-1.04-2.12-1.79-2.67-3.32-3.76-5.88-.92-2.17-1.84-6.59,.42-7.67-.92-3.79-.85-1.11-1.13-4.64-.14-3.34,.4-3.12-.24-4.92-1.18-3.35,1.03-5.72,1.74-9.03,.39-1.83,1.68-4.57,2.76-6.11,1.75-2.48,.26-1.05,4.34-4.73,5.89-3.28,1.32-1.88,10.92-5.07,.23-.14,5.95-.61,6.21-.57,5.85,.89,7.53,.19,12.8,2.64,7.34,4.33,4.35,1.91,7.91,5.84,2.07,2.67,2.71,6.5,4.28,9.46,1.25,2.38,.8,3.65,1.23,7.2,.21,3.02,.95,5.22,.56,7.55,.54,.08-1.01-.33-.48-.27,1.26,.15,1.77,.56,1.96,1.75,.25,1.56,.33,2.52,.28,4.09-.04,1.35-.51,2.55-.78,3.88-.29,1.45-1.43,3.15-2.75,3.46-1.54,.36-1.83,1.51-2.44,2.9-.75,1.69-1.6,3.35-2.46,4.99"/></g></svg>