<?xml version="1.0" encoding="UTF-8"?><svg id="Layer_2" xmlns="http://www.w3.org/2000/svg" viewBox="0 0 28.7 16.47"><defs><style>.cls-1{fill:none;}.cls-2{fill:#f7f6f6;}.cls-3{fill:#010101;}.cls-4{fill:#060707;}.cls-5{fill:#3c3c3c;}</style></defs><g id="SAFE"><g><path class="cls-1" d="M.54,15.59l.03,.05s-.01-.04-.03-.05Z"/><path class="cls-1" d="M15.08,6.08c.09-.01,.18-.02,.27-.02,.14-.03,.28-.05,.43-.02,.06,0,.13,0,.19-.02,.1,0,.2-.03,.3-.05,.06-.01,.12-.01,.18,0,.1,.02,.16,.1,.22,.17-.16-.48-.88-.76-1.13-.8,0,.01-.02,.03-.03,.04-.07,.08-.15,.16-.23,.23l-.28,.42s.05,.04,.07,.05Z"/><polygon class="cls-1" points="11.91 2.53 11.9 2.54 11.92 2.54 11.91 2.53"/><path class="cls-3" d="M14.84,4.77c-.05-.03-.1-.07-.16-.1l.3,.23c-.02-.05-.08-.09-.14-.13Z"/><path class="cls-3" d="M14.43,1.89l.29-.26c-.22-.04-.29,.07-.29,.26Z"/><path class="cls-4" d="M15.65,5c.27-.06,.37-.4,.68-.41,.17-.37-.21-.35-.35-.5-.2,0-.3,.15-.42,.27-.23,.23-.32,.16-.37-.13-.12-.68-.32-1.34-.56-1.99l-2.71,.29h-.09c-.13,.26-.29,.45-.61,.37h0c.26,.43,.52,.86,.8,1.28,.12,.18,.29,.38,.53,.27,.78-.34,1.47-.18,2.14,.22,.05,.03,.11,.06,.16,.1,.06,.04,.12,.08,.14,.13,.02,.05,.01,.1-.04,.17h0c.24-.05,.43-.48,.72-.07Z"/><path class="cls-5" d="M.54,15.59v.7c.17-.14,.18-.29,.15-.45l-.12-.2-.03-.05Z"/><path class="cls-3" d="M28.66,5.69c-.02-.29-.15-.51-.38-.7-.54-.45-1.11-.83-1.72-1.16-2.12-1.16-4.42-1.89-6.7-2.66C18.16,.59,16.42,.14,14.6,.03c-1.06-.06-2.11-.06-3.15,.18-.78,.18-1.11,.77-.88,1.54,.13,.43,.35,.82,.64,1.16,.32,.09,.48-.11,.61-.36h.08v-.02h.01l2.71-.29c.23,.65,.44,1.31,.56,1.99,.05,.29,.15,.36,.37,.13,.12-.12,.22-.27,.42-.27,.14,.15,.52,.13,.35,.5-.3,0-.4,.35-.68,.41-.28-.4-.48,.02-.72,.07h0c-.25,.15-.36,.41-.45,.66-.43,1.19-.75,2.4-.74,3.69,0,.14,.05,.29-.1,.4-.59,.44-1.12,1.06-1.99,.58-.13-.07-.31-.05-.47-.07-.25-.04-.56,.19-.74-.01-.16-.17-.18-.47-.28-.72-.24-.64-.77-.85-1.35-.47-1.28,.84-1.85,2.14-2.12,3.57-.06,.3-.13,.34-.37,.37-1.27,.16-2.55,.31-3.82,.49-.24,.03-.32,0-.37-.24-.14-.68-.43-1.31-.78-1.91-.09-.16-.21-.31-.33-.45-.06-.07-.17-.15-.27-.09-.12,.08-.02,.18,.02,.26,.16,.37,.33,.73,.48,1.11q.48,1.26-.44,2.23s-.02,.02-.03,.03c-.13,.19-.22,.17-.32-.04-.1-.19-.15-.45-.47-.52,.32,.55,.48,1.09,.54,1.66,.02,.01,.03,.03,.03,.05l.12,.2c-.14-.69,.24-1.13,.72-1.53,.1-.08,.18-.14,.31-.11,.14,.03,.1,.16,.11,.25,.03,.29,.07,.57,.09,.86,.03,.36,.05,.72,.08,1.16,.24-.23,.24-.44,.25-.65,.01-.43,.05-.87,0-1.3-.03-.35,.11-.44,.41-.48,1.26-.15,2.53-.29,3.78-.48,.37-.06,.45,.08,.49,.38,.07,.47,.2,.9,.57,1.26,.17,.17,.29,.23,.51,.15,.58-.22,.95-.69,1.35-1.12,.18-.2,.31-.51,.53-.61,.24-.11,.5,.16,.73,.28,.76,.4,1.4,.24,2.01-.3,.2-.18,.47-.3,.65-.5,.87-.88,2.06-1.48,2.45-2.79,.08-.26,.23-.07,.32,0,.13,.1,.24,.14,.33,.12,.08-.01,.17-.06,.31-.3,.1-.18,.23-.44,.3-.84,0,0,.04-.21,.23-.72,0-.02,.02-.06,.06-.07,0,0,.03,0,.07,0,.14,.07,.24,.59,.24,.59,.17,.46,.34,.92,.73,1.26,.12,.11,.27,.22,.4,.04,.45-.59,1.1-.93,1.7-1.31,1.78-1.14,3.72-1.83,5.84-1.97,.67-.04,1.37-.02,1.86,.58,.08,.1,.13,.25,.29,.21,.18-.04,.22-.2,.23-.37,.04-.62,.04-1.24-.01-1.86ZM14.43,1.89c0-.19,.07-.3,.29-.26l-.29,.26Zm-1.88,9.97c-.45,.38-.82,.84-1.18,1.3-.03,.04-.09,.06-.13,.09-.22-.12-.41-.25-.62-.34-.35-.15-.08-.36-.06-.53,.04-.3,.08-.6,.05-.9-.02-.17,.01-.24,.2-.2,.52,.1,1.04,.18,1.56,.26,.24,.04,.34,.18,.17,.33Zm2.88-5.41c-.18,.25-.18,.41-.26,.42-.09,0-.18-.25-.2-.32-.03-.08-.04-.15-.04-.17-.02-.15,0-.28,.03-.37l.5-.67-.18,.28c.08-.07,.16-.15,.23-.23,.01-.01,.02-.03,.03-.04,.25,.05,.94,.39,1.1,.87-.02-.03-.05-.08-.1-.12-.05-.04-.1-.05-.13-.05-.06-.01-.12-.01-.15,0-.03,0-.08,0-.14,0-.04,0-.12,0-.2,.02-.1,.02-.16,.07-.25,.14-.06,.05-.16,.13-.26,.26Zm.99,2.87c-.25-.22-.4-.47-.51-.72-.02-.03-.03-.06-.05-.09-.24-.45-.19-.55-.16-.59,.06-.08,.2-.03,.31-.05,.21-.22,.48-.61,.82-1.14,.09,.16,.17,.4,.21,.63,.19,.99-.49,1.81-.63,1.96Z"/><path class="cls-2" d="M15.55,5.33h-.08l-.27,.27h0c-.17,.18-.19,.31-.26,.48,0,.01,0,.03,.01,.04"/><polygon class="cls-2" points="14.95 6.12 14.95 6.12 14.95 6.12 14.95 6.12"/><polygon class="cls-2" points="14.95 6.12 14.95 6.12 14.95 6.12 14.95 6.12"/><path class="cls-4" d="M14.9,6.21s-.04-.13-.02-.17c.07-.16,.13-.25,.32-.43,.12-.34-.43,.4-.3,.61Z"/></g></g></svg>