<?xml version="1.0" encoding="UTF-8"?><svg id="Layer_2" xmlns="http://www.w3.org/2000/svg" viewBox="0 0 22.66 25.48"><defs><style>.cls-1{fill:#8b8b8b;}.cls-2{fill:#b5b5b5;}.cls-3{fill:#8c8c8c;}.cls-4{fill:#131313;}.cls-5{fill:#242424;}.cls-6{fill:#1e1e1e;}.cls-7{fill:#0b0b0b;}.cls-8{fill:#070707;}.cls-9{fill:#141414;}.cls-10{fill:#1d1d1b;}.cls-11{fill:#a2a2a2;}.cls-12{fill:#292929;}.cls-13{fill:#565656;}.cls-14{fill:#5c5c5c;}.cls-15{fill:#313131;}.cls-16{fill:#575757;}.cls-17{fill:#767676;}</style></defs><g id="SAFE"><g><path class="cls-13" d="M14.82,22.25l-.21-.11,.21,.11Z"/><path class="cls-1" d="M6.17,25.4s-.07-.01-.11-.01c0-.03,0-.07,0-.1"/><path class="cls-2" d="M6.06,25.38s.07,0,.11,.01"/><path class="cls-17" d="M6.06,24.39l-.1-.11"/><path class="cls-12" d="M3.62,11.65l.14,.24-.19-.08-.02-.13v-.03h.08Z"/><path class="cls-3" d="M15.63,25.48l-.34-.24,.34,.24Z"/><path class="cls-5" d="M11.23,22.49l-.13,.24s-.06,0-.09,0c-.22-.11-.42-.27-.65-.33-.47-.12-.96-.18-1.42-.36,.77,.12,1.59-.06,2.29,.46Z"/><path class="cls-4" d="M10.46,23.27v.21l-.12,.11,.12-.32Z"/><path class="cls-9" d="M10.68,23.05l-.12,.11,.12-.11Z"/><path class="cls-8" d="M10.57,23.16l-.11,.11,.11-.11Z"/><path class="cls-11" d="M5.96,24.28l-.12-.14"/><path class="cls-15" d="M9.79,20.82c-.61,.03-1.2-.02-1.62-.55,.54,.18,1.08,.37,1.62,.55Z"/><path class="cls-16" d="M5.86,20.05s.06,0,.09,0c-.03,0-.06,0-.09,0Z"/><path class="cls-14" d="M6.18,14.24l.1,.1-.1-.1Z"/><path class="cls-6" d="M1.12,15.91l.11-.22-.11,.22Z"/><polygon class="cls-10" points=".34 14.23 .33 14.23 .34 14.23 .34 14.23"/><path class="cls-7" d="M22.51,22.58l-.08-.54c-.04-.15-.13-.59-.13-.66l-.42-1.68-.06-.19c-.1-.34-.22-.73-.28-.91-.14-.29-.29-.59-.46-.89-.11-.2-.22-.4-.32-.59-.05-.11-.14-.27-.3-.42-.27-.26-1.51-1-1.76-1.13s-1.92-.87-2.1-.99c-.28-.12-.59-.29-.9-.53-.11-.08-.21-.16-.31-.25h0s-.06-.09-.09-.15c-.1-.2-.11-.38-.11-.51-.02-.33-.02-.5-.01-.66,.05-.76-.02-1.43-.05-1.75v-.02c-.11-.99-.25-2.21-.27-2.41-.19-1.62-.85-3.71-1.77-6.59,0,0-.2-.62-.49-1.13-.13-.22-.26-.41-.39-.58H6.52c0,.05,.02,.11,.03,.16-.01-.05-.02-.11-.03-.16H3.4c-.18,.32-.24,.81-.3,.84-.2,.76-.3,1.39-.36,1.85-.04,.29-.07,.57-.08,.94-.01,.37,0,.44,0,1,0,.46,0,.56,0,.79,.01,.59,.05,1.03,.09,1.5,.02,.22,.05,.55,.14,1.23,.07,.56,.17,1.3,.31,2.19-.11,.06-.17,.14-.21,.18-.02,.03-.06,.08-.08,.14-.02,.07-.02,.13-.02,.19,0,.13,.03,.16,.02,.24-.01,.06-.04,.11-.07,.13-.05,0-1.14,.15-1.45,.46-.09,.09-.19,.2-.19,.2-.07,.08-.17,.2-.28,.36-.03,.05-.13,.2-.22,.42-.08,.19-.21,.49-.27,.89-.02,.15-.04,.36-.03,.61l-.08,1.04c-.05,.2-.23,.6-.27,.75-.06,.25-.05,.46-.05,.59,0,.34,.06,.6,.07,.66,.02,.14,.08,.35,.19,.58,.05,.09,.14,.27,.32,.45,.14,.14,.31,.25,.59,.38,.38,.16,.57,.13,1.12,.25,.54,.11,.55,.18,1.21,.33,.42,.1,.77,.15,1,.18l.45,.25c.09,.05,.21,.11,.33,.21,.09,.07,.17,.15,.23,.21l.58,.42,.54-.37,.44-.17,.32-.41-.44-.48c-.14-.13-.27-.34-.44-.39-.23-.07-.22-.1-.41-.24s-.21-.44-.41-.7c-.19-.26-.36-.31-.54-.47l-.58-.29c-.25-.1-.52-.18-.76-.31-.24-.12-.4-.35-.6-.53l.43-.82c.13,.08,.28,.15,.46,.21,.12,.04,.18,.05,.3,.09,.14,.05,.3,.11,.46,.2,.37,.09,.79,.19,1.02,.27,.23,.07,.34,.19,.57,.16,.16-.02,.28-.1,.33-.13,.21-.14,.53-.32,.98-.55l.21,.17c.64,.55,1.28,1.1,1.91,1.65,.78,.61,1.6,1.23,2.46,1.84,.58,.41,1.15,.81,1.71,1.2,.69,.4,1.4,.83,2.11,1.29,.29,.19,.58,.38,.87,.57l1.19,.57,.92,.42,1.17,.24,2.08,.14,.21-.47,.04,.02c-.05-.2-.1-.4-.15-.6ZM1.76,12.88l.03,.16-.03-.16h0Zm.14,.59h0l-.54,.07c.18-.02,.36-.05,.54-.07Zm-.13,.28l-.19,.02-.05-.02,.05,.02,.19-.02Zm-.41-.88h0c-.1-.09-.19-.18-.29-.27,.1,.09,.19,.18,.29,.27Zm0,.82h0Zm-.01,.11v.11h.01v-.11Zm0,.19s0,.02,0,.03h0s0-.02,0-.03Zm-.22,2.01v-.09l.04-.08-.04,.08v.09Zm0-.31l-.05-.06,.05,.06h0Zm-.44-1.34l.34-.56c-.11,.19-.23,.37-.34,.56H.69Zm.1,2.9c-.15,0-.29,0-.44,0h.44c.54-.07,1.07-.11,1.59-.05-.52-.06-1.05-.02-1.59,.06Zm1.48-3.13l.06-.08h0l-.06,.08Zm-.15-.41h0l.4-.12-.4,.12Zm1,1s0,.07,.03,.11c-.02-.04-.03-.08-.03-.11Zm.3,2.11s-.04,0-.05,0h.05Zm3.25-6.98l.04-.17h0l-.04,.17Zm.03,2.41h0l-.03,.02,.03-.02Zm0,.87l-.09-.1c-.09-.1-.15-.19-.18-.28,.03,.09,.09,.19,.18,.28l.09,.1Zm-.32-1.1h0l-.52-.65,.52,.65ZM5.95,.4l-.02,.07,.02-.07c.02,.08,.07,.17,.1,.25-.03-.08-.07-.17-.1-.25Zm.04-.17c-.05,.01-.11,.02-.17,.03,.06,0,.11-.01,.17-.03Zm-.35,7.66c.07-.04,.13-.08,.2-.12l-.2,.12v0Zm-.61-3.97h0c-.05-.21-.09-.42-.14-.63,.05,.21,.09,.42,.14,.63Zm-.3,2.51l.24,.32-.24-.32h0Zm0,3.46h0l-.32-.13h0l.32,.13Zm-.22-3.35h0l-.17,.17,.17-.17Zm-.2,3.65c.58,.71,1.16,1.43,1.74,2.14-.58-.71-1.16-1.43-1.74-2.14l-.02-.3,.02,.3Zm1.57,2.46l-.05-.2c-.36-.23-.69-.5-.96-.81,.27,.31,.6,.57,.96,.81l.05,.2Zm-1.61-5.87h0c-.07-.11-.14-.22-.21-.33,.07,.11,.14,.22,.21,.33Zm-.39,4.71c.09,.11,.13,.24-.12,.4h0c.25-.17,.22-.29,.12-.4Zm-.22-8.64h0c.04,.9,.08,1.81,.12,2.71h0c-.04-.9-.08-1.81-.12-2.71Zm.13-2.04c-.03-.13-.07-.25-.13-.38,.06,.13,.11,.25,.13,.38Zm-.46,1.84s.03-.02,.04-.02c-.02,0-.03,.02-.04,.02h0Zm.22,7.26c-.05-.41-.15-.82-.23-1.23v0c.08,.41,.18,.81,.23,1.23Zm-.23-7.27h0Zm-.33,.46l-.22,.21,.22-.21h0Zm.12,1.21v0s.04,.05,.06,.08c-.02-.03-.04-.05-.06-.08Zm-.11-1.33v0l.36-.24-.36,.24Zm.4,12.2c-.04-.06-.09-.12-.13-.18,.05,.06,.1,.12,.13,.18h0Zm3.43-.31c-.09,.06-.2,.12-.33,.17-.05,.02-.09,.04-.13,.05-.26-.1-.4-.19-.79-.31-.19-.06-.33-.08-.4-.09h-.06s.04,0-.06-.01-.47-.16-.53-.19-.52-.89-.78-1.34l.22-.24c.15-.11,.3-.22,.45-.33l.31,.3c.48,.46,.97,.93,1.45,1.39l.71,.58s-.04,.02-.05,.03Zm.11-5.97h-.11c-.12-.31-.24-.61-.34-.92,.11,.31,.22,.61,.34,.92h.11Zm.22-3.12c-.17-.26-.29-.52-.37-.79,.08,.27,.2,.53,.37,.79h0Zm.05-5.69s.02,.05,.01,.07c0-.02,0-.04-.01-.07Zm.32,12.18h0Zm.39-.9h0v0Zm6.69,1.88s0-.06,0-.09c0,.03,0,.06,0,.09h0Zm-.42,3.88s-.07,0-.09-.03c.02,.02,.05,.03,.09,.03Zm-.11-11.48c-.01-.06-.02-.11-.02-.16,0,.05,.01,.11,.02,.16Zm-.17-1.97c-.04,.05-.12,.12-.18,.15,.06-.03,.14-.1,.18-.15Zm-.49,3.66h0Zm-.15-4.13l.09,.05-.09-.05h0Zm.36,9.6h0l-.46-.26,.46,.26Zm-.56-7.24c0-.14-.02-.28-.04-.42,.02,.14,.03,.28,.04,.42Zm.03,.43h0c-.17-.5-.33-1-.5-1.51,.17,.51,.34,1.01,.5,1.51Zm-.88,1l-.11,.11,.11-.11h0Zm.13,.83h0s-.01-.04-.02-.06c0,.02,.02,.04,.02,.06Zm-.02-.52l-.1,.02h0l.1-.02Zm-.1-.52s0,.03-.01,.05c0-.02,0-.03,.01-.05,.03,0,.07,0,.1-.02-.03,0-.07,.01-.1,.02Zm.1-.02h0l-.12,.11,.11-.11Zm.1-.1l.1-.1h0l-.1,.1Zm0,0h0Zm0-.39l.09,.11-.09-.11h0l-.21-1.12-.13-.05,.13,.05v-.19c-.03-.06-.07-.13-.1-.19l.11,.19v.19c.07,.37,.14,.75,.21,1.12Zm-.44,.84h0l.12-.12-.12,.12Zm.11,0h0Zm.13-3.71h0l-.13,.16,.13-.16Zm-.12,1.09v0l-.16-.52,.16,.52Zm-.12,2.63l-.1,.11h0l.1-.11Zm-.32-3.69h0l-.1,.1h0l.1-.1,.1-.1-.1,.1Zm.01,3.25l-.14,.09h0l.14-.09Zm.07-3.59l.06,.22,.07,.25c-.02-.08-.05-.17-.07-.25-.02-.07-.04-.15-.05-.22Zm-.42-2.34c.11-.29,.28-.37,.5-.32-.22-.05-.38,.03-.5,.32h0c-.07,.25-.13,.49-.2,.74l.2-.74Zm.11,2.4s0,.03-.01,.04h0s0-.03,.01-.04Zm-.34-.71c.08,.05,.16,.11,.25,.16h0c-.08-.05-.16-.11-.25-.16h0Zm.12,.32h0l-.12,.12,.12-.12Zm-.22,.22l.11-.12h0l-.11,.12Zm-.11-.22h0l-.11,.11h0l.11-.12h0Zm-.22,.22h0l.21,.12-.21-.12Zm.1,1.57l-.1,.1h0l.1-.1Zm-.43-2.36l.45,.09-.45-.09h0Zm-.11,1.23l.12-.13,.28-.42h0c-.09,.14-.19,.28-.28,.42l-.12,.13,.02,.21,.1,.03h0l-.1-.03h0c0-.07-.02-.14-.02-.21h0Zm-.22-1.43h0Zm0,.09h0l-.11,.12,.11-.12Zm.04,1.04l-.15-.25-.1-.24,.1,.24,.15,.25Zm-.2-1.14l-.06,.19h0l.06-.19c-.05-.01-.1-.02-.14-.02,.04,0,.09,0,.14,.02Zm.46,2.33l.16-.18-.16,.18c-.21,1.22-.42,2.45-.63,3.67,.21-1.22,.42-2.45,.63-3.67Zm-1.83,8.47l-.14-.14,.14,.14h0Zm-.11-3.23h0s.3,.14,.45,.21l-.45-.21Zm.6-1.83c.06-.39-.02-.79-.05-1.19h0c.03,.4,.1,.79,.05,1.19Zm.94,3.61h0l.16,.17-.16-.17Zm-.11-.78l-.76-.61,.76,.61c.38,.23,.76,.47,1.13,.7-.38-.23-.76-.47-1.13-.7Zm1.2-8.03l.08-.07-.08,.07h0Zm0,.68l.22,.12,.12,.09-.12-.09-.22-.12Zm.33,11.04h0c.06,.02,.12,.04,.18,.06-.06-.02-.12-.04-.18-.06Zm.2-6.91s-.05,0-.08,0c.03,0,.05,0,.08,0l.1,.07-.1-.07Zm.11-.12v-.11h0v.11Zm.01-.12l.1-.11-.1,.11h0Zm.1-.11h0l.1-.1-.1,.1Zm.1,.44h0v0Zm.12,.23s0-.03,0-.04c0,.01,0,.03,0,.04h0Zm0-.1h0s-.06,.02-.1,.02h0s.07,0,.1-.02l.1-.11-.1,.11Zm.22-.11h0l-.11,.11,.11-.11Zm0,.34l.11-.11-.11,.11h0Zm.07,7.6c.32,.38,.63,.75,.96,1.12-.33-.37-.65-.74-.96-1.12Zm3.22,3.45c-.7-.56-1.39-1.11-2.09-1.67,.7,.56,1.39,1.11,2.09,1.67h0Zm.33-.79h0l.47,.54c-.16-.18-.31-.36-.47-.54Zm.84,.51c.08,.06,.16,.14,.23,.22-.06-.08-.14-.15-.23-.22Zm3.47,.74c-.17,.31-.29,.64-.27,1.04-.02-.4,.1-.73,.27-1.04Zm-.56-1.64c-.02-.06-.03-.13-.04-.2,0,.07,.02,.14,.04,.2Zm-.68-1.71s-.08,.08-.11,.08c.03,0,.07-.03,.11-.08Zm-.25,1.9l.11-.34-.11,.34h0Zm.36,4h0c.12,.15,.24,.29,.37,.41-.13-.12-.25-.26-.37-.41Zm1.54,.32l-.99-.34c-.44-.26-.87-.52-1.31-.79h0c.44,.26,.87,.52,1.31,.79h0l.99,.34h0Zm.53-1.06l-.85,.17c.1,.27,.19,.55,.29,.82-.1-.27-.19-.55-.29-.82-.12-.15-.23-.3-.35-.45-.44-.03-.88-.06-1.32-.1h0c.44,.03,.88,.06,1.32,.1h0c.12,.15,.23,.3,.35,.45l.85-.17h0Zm.06,.15h0l.08-.12-.08,.12Zm.34-.5h0c.08,.11,.14,.21,.17,.31-.03-.1-.09-.2-.17-.31Z"/><path class="cls-7" d="M13.32,22.45l1.22-1.35v-.27l-.03-.28-.44-.15c-.17-.06-.65-.19-.75-.22-.19-.04-.73-.17-.54-.12,.04,.01,.06,.02,.06,.02,0,0-.48-.11-.83-.19-.22-.05-.44-.09-.69-.16-.1-.03-.36-.08-.89-.19-.57-.12-.84-.17-1.17-.2-.09,0-.13-.01-.2-.02-.27-.02-.49,0-.92,.05-.12,.01-.25,.03-.41,.06-.12,.03-.24,.06-.34,.09l-.32,.41-.44,.17c-.12,0-.43,.02-.73,.23-.24,.17-.36,.39-.39,.45-.37,.73,.06,1.62,.57,2.15,.59,.61,1.56,.72,2.35,.83,.63,.09,1.26,.12,1.89,.12,.24,0,.83-.01,1.52-.04h.06l.45-.27c.08-.09,.23-.26,.42-.48,0,0,0-.01,0-.02v-.02l.03,.02,.08-.09,2.32,2.23h.99l-2.84-2.74Z"/></g></g></svg>