<?xml version="1.0" encoding="UTF-8"?><svg id="Layer_2" xmlns="http://www.w3.org/2000/svg" viewBox="0 0 218.38 126.46"><defs><style>.cls-1{fill:#010101;}.cls-2{fill:#f4f3f3;}.cls-3{fill:#fbfafa;}</style></defs><g id="Layer_1-2"><g><path class="cls-2" d="M19.76,37.37c1.02-.77,2.04-.85,3.04-.16-.99,.94-2.04,.32-3.04,.16Z"/><path class="cls-3" d="M218.34,95.94c.31,1.36-1.4,.78-1.85,.16-.11-1.37,1.43-1.39,1.85-.16Z"/><path class="cls-1" d="M212.68,103.27c-9.84-5.96-33.39-5.75-39.24-6.87-1.26-.19-2.06-.86-1.45-3.16,.85-3.2,3.83-16.45,2.95-24.96-.25-2.45,.43-5.9,1.91-6.32,4.58-1.29,3.8-5.43,5.48-8.18,5.24-8.58,5.96-18.23,6.48-27.93,1.17-8.48-12.01-7.39-6.02-17.58,1.67-6.33-4.67-11.36-9.36-6-6.37,6.47,4.74,10.72-2.96,10.61-5.2,.03-10.36,.27-13.95,5.51-3.96,5.24-12.02,5.59-16.38,10.48-7.1,5.66-11.79,7.45-13.28,7.45-18.89-4.13-38.1-11.11-57.62-11.4-22.3-1.31-44.08,3.41-65.96,6.75-1.69,.26-3.56,.27-3.29,2.66,.25,2.24,1.73,2.72,3.89,2.51,7.07-.66,24.11-1.8,25.35-1.79,1.3,0,1.19,1.2,1.26,4.64,.03,1.39,.35,3.14-.14,3.48-2.73,1.91-1.07,6.03,3.45,6.61,25.99,.5,51.98-2.64,79,1.16,3.35,.41,5.65,.49,10.37,1.56,5.8-.08,9.61-5.87,9.56-8.75-.02-2.2-1.55-1.95-1.22-3.19,8.63-6.55,18.09-12.86,28.18-17.02,3.4,15.22-10.09,23.74-13.72,36.65-2.09,9.9-5.07,21.66-4.79,27.59,.05,1.04-.09,4.52-.85,6.02-2.07,.28-12.24-.19-18.82,.19-3.2,0-3.96-.32-4.63,2.14-.58,2.13,1.08,2.46,2.37,3.32,.85,.56,9.31,4.83,13.43,7.53,2.66,1.51,2.8,1.49,1.83,3.56-3.1,5.19,7.54,6.89,6.47,.93,.03-2.46-1.03-3.36,3.7-3.11,3.08,.49,6.2,.75,9.31,.99,5.61,.57,72.72,7.68,58.65-6.07Zm-31.95-69.45c.18-.15,.83,.27,1.27,.42,.64,2.52,.87,5.03-.13,7.53-2.29,3.53-1.06,8.39-4.3,11.67-3.25-5.78-1.63-15.67,3.16-19.62Zm-133.23,6.87c-2.12,.3-11.09,1.47-12.37,1.56-.99,.07-1.15-.03-2.33-7.55,14.3-2.35,28.59,.16,42.89,1.96-9.4,1.34-18.79,2.69-28.19,4.03Zm120.76,35.17c-1.5,27.46,3.8,18.45-23.3,18.41,4.68-9.03,2.07-19.52,8.68-27.41,2.71-1.8,7.93-14.6,11.06-9.45,2.72,5.82,4.29,12.21,3.56,18.45Z"/><polygon class="cls-1" points="138.49 126.46 131.13 125.07 134.57 106.96 141.93 108.35 138.49 126.46"/></g></g></svg>