<?xml version="1.0" encoding="UTF-8"?><svg id="Layer_2" xmlns="http://www.w3.org/2000/svg" viewBox="0 0 411.86 412"><defs><style>.cls-1{fill:#1d1d1b;}.cls-2{fill:none;stroke:#1d1d1b;stroke-miterlimit:10;stroke-width:20px;}</style></defs><g id="Layer_1-2"><path class="cls-2" d="M.2,353.92c22.9,.47,22.09,40.14,45,40.61,22.9,.47,23.71-39.21,46.61-38.74,22.9,.47,22.1,40.14,45,40.61,22.9,.47,23.71-39.21,46.61-38.74s22.09,40.14,45,40.61c22.9,.47,23.71-39.21,46.62-38.74s22.09,40.14,45,40.61c22.91,.47,23.71-39.21,46.62-38.74,22.91,.47,22.1,40.14,45,40.61"/><path class="cls-1" d="M106.66,103.94c-.62,1.45-1.37,3.57-1.86,5.94l.3-1.31c-1.04,4.42-1.75,8.97-1.75,13.52l.28,4.66,.71,4.8,.85,3.95,1.27,3.67,2.12,3.25,2.12,2.54,2.4,2.12,2.68,2.26,1.13,.42,.99-1.13s-2.07-1.22-2.96-2.82-.24-.19-.42-1.84,.56-3.81,.56-3.81l1.27-4.24,1.84-4.52,1.27-2.96,1.98-4.09,1.27-2.82,1.55-3.67,.56-1.55,.42-2.26c.55-2.08,.51-4.71,2.23-6.2,1.06-.91,2.42-1.38,3.79-1.65,.88-.18,1.8-.29,2.58-.74s1.38-1.36,1.15-2.23c-.34-1.24-1.94-1.49-3.21-1.62-2.11-.2-4.19-.69-6.17-1.44-2.09-.79-4.08-1.88-6.23-2.5-2.58-.75-5.43-.78-7.89,.3-2.74,1.2-3.78,3.52-4.83,5.96Z"/><path d="M277.49,58.47c-.61,.07-.88-.6-1.22-1.02-.32-.39-.62-.79-.86-1.23-1.1-2.05-2.24-4.03-3.85-5.79-1.23-1.35-2.52-2.65-3.74-4.03-.82-.94-1.61-1.89-1.58-3.21,.08-3.61-.74-7.03-2.08-10.35-.86-2.3,1.07-3.48,2.07-4.99,.76-1.15,2.11-1.64,3.29-2.31,1.88-1.06,3.37-2.69,5.34-3.62,.05-1.1,.95-1.63,1.66-2.15,3.48-2.56,7.02-5.05,10.58-7.5,.75-.52,1.53-1.15,2.55-1.12,4.88-2.97,9-6.68,12.33-11.13h-29.53c-1.01,1.49-1.94,3.04-2.89,4.58-.89,1.45-1.62,3.07-3.53,3.56-.32,.08-.64,.47-.81,.8-1.16,2.16-2.89,3.94-4.06,6.1-.67,1.25-1.81,2.2-3.17,2.77-2.58,2.5-5.22,4.94-7.1,8.07-.74,1.24-1.73,1.26-2.78,.38-.93-.78-1.84-1.6-2.76-2.4-.52-.2-.83-.56-.84-1.14-.05-.07-.1-.15-.16-.22-2.32-1.63-4.21-3.75-6.24-5.7-4.16-4-7.91-8.44-12.36-12.14-1.44-1.2-2.34-2.82-3.68-4.08-.2-.19-.4-.38-.6-.56h-59.77c8.04,8.53,16.69,16.44,24.88,24.81,1.67,.72,2.91,2.02,4.23,3.2,2.86,2.54,5.71,5.09,8.59,7.61,.75,.66,1.63,1.17,2.38,1.82,2.46,2.16,4.41,4.88,7.38,6.51,1.79,.99,1.75,1.53,.34,3.05-4.24,4.58-8.46,9.17-12.72,13.73-9.69,10.38-19.39,20.76-29.09,31.12-3.46,3.7-7.05,7.29-10.42,11.07-5.37,6.03-10.84,11.97-16.44,17.79-1.12,1.17-2.47,2.09-4,2.68-1.57,.61-3.15,.55-4.43-.53-3.06-2.58-6.03-5.27-9.03-7.92-.9-.48-1.63-1.16-2.31-1.9-1.1-.59-1.56-1.52-1.46-2.75,.13-1.71-.41-3.16-1.69-4.35-2.24-2.09-13.61,28.99-11.17,33.95,2.03,4.12,4.95,7.38,8.79,9.84,.7,.45,1.62,.95,2.22,.02,.58-.89-.28-1.45-.93-1.84-1.04-.62-1.44-1.55-1.46-2.64-.02-1.33-.05-2.69,.16-4,1.03-6.37,4.07-11.98,6.87-17.68,.58-1.18,1.23-1.13,2.19-.29,6.86,6.02,13.68,12.1,20.69,17.95,7.09,5.92,14.38,11.59,21.59,17.36,3.08,2.46,6.15,4.92,9.28,7.33,1.95,1.5,3.4,3.07,2.86,5.88-.25,1.3,.12,2.78,.44,4.13,.42,1.8,1.18,3.49,2.5,4.84,.41,.42,1.12,1.05,1.48,.22,.44-1.03,2.48-3.72,2.82-4.2,.07-.1,.55-.79,.89-.96,.57-.29,1.34-.31,1.64-.34,1.12-.11,1.44-.91,.58-1.55-1.58-1.18-1.31-2.6-1.04-4.18,.25-1.46,.74-2.78,1.41-4.08,.88-1.71,.57-2.28-1.37-2.51-2.09-.26-3.97,.34-5.63,1.6-1.17,.89-2.16,.86-3.19-.28-.9-.98-1.96-1.81-2.95-2.71-7.3-6.62-14.51-13.35-22.02-19.74-2.12-1.81-2.56-3.5-1.52-6.09,.48-1.2,1.11-2.3,2-3.26,6.88-7.36,13.7-14.77,20.64-22.07,11.21-11.79,22.12-23.86,33.84-35.16,5.38-5.19,10.94-10.16,16.99-14.55,1.14-.82,1.94-.78,3.09,.08,5.2,3.92,9.97,8.38,15.26,12.2,1.62,1.17,3.22,2.39,4.7,3.74,2.63,2.39,5.77,4.07,8.45,6.37,.77,.67,1.63,.68,2.49,.2,1.14-.63,2.32-.68,3.56-.44,2.23,.44,4.38,1.28,6.7,1.27,4.27-.02,8.13-1.06,11.21-4.24,.88-.91,1.23-1.86,.9-3.17-.42-1.67-.55-3.41,.12-5.08l-.42-2.6c-1.03-1.39-1.78-3.07-.99-4.61M116.16,131.17c-.19,.18-.48,.48-.43,.64,.38,1.36-.98,1.91-1.25,3.07-1.37-1.4-1.78-2.76-.76-4.43,.57-.94,.91-2.02,1.42-3,.45-.86,.97-.98,1.55-.03,.9,1.48,.77,2.51-.53,3.74Zm19.23-.83c.85,.14,1.34,.67,1.94,1.61-1.12-.33-1.68-.8-1.94-1.61Zm72.16-65.94c-.48,.63-1.39,1.21-.18,2,.29,.19,.26,.51,.05,.73-.93,.96-.77,2.13-.74,3.3,.03,1.57-1.34,2.18-2.29,3.06-.09,.09-.48,.02-.58-.1-.44-.56-.84-1.43-1.68-.73l-2.25,5.27c-.03,.39-.29,.79-.73,.81-.42,.02-.45-.42-.56-.72-1.48-3.92,0-7.72,3.76-9.66,.92-.47,1.61-.4,1.92,.72,.09,.32,.17,.65,.98,1.13-.67-3.33,.04-5.8,3.16-7.2,.04,.73-.54,.97-.85,1.38Zm58.44,7.74c1.92,.67,2.95,2.09,3.74,3.8,.9,1.14,1.3,2.39,1.1,3.87-.17,1.23-.78,1.78-2,1.71-3.91-.24-7.47-1.28-10.42-4.09-2.64-2.51-6.07-3.97-8.93-6.23-.74-.58-1.55-1.01-1.97-1.94-.9-1.97-2.77-2.99-4.42-4.16-2.4-1.71-4.56-3.71-6.86-5.54-2.15-1.71-3.86-3.97-6.03-5.71-2.2-1.77-4.31-3.66-6.47-5.5-1.56-1.33-1.39-2.31,.53-3.12,.53-.22,1.02-.53,1.54-.8,.51-.26,1.04-.48,1.65-.52l.23-.14c.14-.09,.28-.17,.41-.26h.01c.27-.13,.53-.23,.79-.32,.49-.16,.96-.25,1.43-.27,.03,0,.06,0,.09,0,.73-.02,1.44,.16,2.14,.54,.47,.25,.94,.6,1.41,1.05,4.53,4.26,9.27,8.29,13.92,12.41,.33,.29,.73,.52,.82,1.01l.43,.41c.35,.06,.63,.19,.85,.4,.11,.1,.2,.22,.28,.36,.08,.14,.15,.29,.2,.45,4.19,3.84,8.46,7.58,13,11.01,.8,.6,1.6,1.29,2.52,1.61Z"/><polygon points="193.29 71.72 198.93 64.38 207.12 59.01 212.49 64.09 209.1 72.85 203.73 77.65 197.52 81.88 193.29 71.72"/><polygon points="220.96 42.64 230.84 38.68 274.32 74.54 270.76 84.37 258.01 83.34 225.76 58.16 220.96 42.64"/><polygon points="210.32 44.89 182.75 21.46 161.72 0 221.49 0 248.12 26.25 273.85 53.46 281.57 64.66 282.86 76.96 270.82 79.82 260.5 83.54 254.28 80.94 229.6 61.03 210.32 44.89"/><polygon points="133.99 129.51 135.5 129.04 138.13 131.76 137.29 132.99 133.99 129.51"/></g></svg>