<?xml version="1.0" encoding="UTF-8"?><svg id="Layer_2" xmlns="http://www.w3.org/2000/svg" viewBox="0 0 206.47 228.4"><defs><style>.cls-1{fill:#8b8b8b;}.cls-2{fill:#b5b5b5;}.cls-3{fill:#8c8c8c;}.cls-4{fill:#131313;}.cls-5{fill:#242424;}.cls-6{fill:#1e1e1e;}.cls-7{fill:#0b0b0b;}.cls-8{fill:#070707;}.cls-9{fill:#141414;}.cls-10{fill:#1d1d1b;}.cls-11{fill:#a2a2a2;}.cls-12{fill:#292929;}.cls-13{fill:#565656;}.cls-14{fill:#5c5c5c;}.cls-15{fill:#313131;}.cls-16{fill:#575757;}.cls-17{fill:#767676;}</style></defs><g id="Layer_1-2"><g><path class="cls-13" d="M135.06,199.47c-.63-.34-1.27-.68-1.9-1.01,.63,.34,1.27,.68,1.9,1.01Z"/><path class="cls-1" d="M56.23,227.62c-.33-.05-.65-.09-.98-.13,0-.3-.02-.6-.03-.91"/><path class="cls-2" d="M55.24,227.49c.33,.04,.66,.08,.98,.13"/><path class="cls-17" d="M55.17,218.6c-.3-.32-.59-.64-.89-.96"/><path class="cls-12" d="M33.02,104.44c.41,.71,.82,1.41,1.23,2.12-.57-.24-1.15-.47-1.72-.71-.07-.37-.15-.75-.22-1.12l-.13-.25h.42l.42-.03Z"/><path class="cls-3" d="M142.4,228.4c-1.02-.7-2.04-1.41-3.06-2.11,1.02,.7,2.04,1.41,3.06,2.11Z"/><path class="cls-5" d="M102.27,201.54c-.38,.71-.76,1.42-1.14,2.13-.28-.03-.55-.05-.83-.06-1.97-1.01-3.84-2.43-5.94-2.94-4.3-1.04-8.71-1.6-12.92-3.22,6.99,1.11,14.48-.52,20.83,4.09Z"/><path class="cls-4" d="M95.32,208.6c0,.63,0,1.26,0,1.9-.35,.34-.7,.67-1.05,1.01,.35-.97,.71-1.94,1.06-2.91Z"/><path class="cls-9" d="M97.31,206.59c-.35,.33-.7,.67-1.05,1l1.05-1Z"/><path class="cls-8" d="M96.26,207.56l-1.03,1.02,1.03-1.02Z"/><path class="cls-11" d="M54.29,217.64c-.35-.43-.7-.85-1.05-1.28"/><path class="cls-15" d="M89.16,186.58c-5.57,.27-10.91-.15-14.79-4.95,4.93,1.65,9.86,3.3,14.79,4.95Z"/><path class="cls-16" d="M53.35,179.66c.27,0,.54,.03,.8,.06-.27,0-.54-.01-.8-.06Z"/><path class="cls-14" d="M56.28,127.59c.29,.29,.59,.58,.88,.87-.29-.29-.59-.58-.88-.87Z"/><path class="cls-6" d="M10.24,142.56c.32-.66,.65-1.32,.97-1.97-.32,.66-.65,1.32-.97,1.97Z"/><path class="cls-10" d="M3.11,127.58s-.06,0-.09,0c.03,0,.06,0,.09,0h0Z"/><path class="cls-7" d="M205.11,202.35l-.74-4.86c-.34-1.32-1.14-5.25-1.2-5.91-1.27-5.03-2.54-10.06-3.81-15.09-.19-.58-.38-1.16-.58-1.74-.91-3.05-2.03-6.56-2.55-8.19-1.3-2.61-2.68-5.27-4.16-7.98-.98-1.8-1.96-3.55-2.95-5.25-.47-.97-1.3-2.4-2.69-3.79-2.42-2.36-13.72-8.96-16.06-10.13s-17.5-7.82-19.16-8.85c-2.51-1.12-5.33-2.64-8.21-4.74-1-.73-1.93-1.47-2.78-2.2h0c-.22-.31-.52-.76-.8-1.34-.87-1.78-.97-3.39-1.03-4.53-.15-2.97-.21-4.45-.11-5.91,.44-6.77-.19-12.85-.49-15.69,0-.04,0-.06-.02-.18-.97-8.88-2.23-19.84-2.44-21.63-1.74-14.56-7.77-33.24-16.1-59.08,0,0-1.79-5.55-4.51-10.11-1.17-1.96-2.39-3.68-3.56-5.16H59.45c.09,.47,.19,.94,.29,1.41-.1-.47-.2-.95-.29-1.41H30.95c-1.64,2.87-2.21,7.3-2.7,7.55-1.78,6.82-2.72,12.48-3.25,16.59-.34,2.62-.65,5.07-.77,8.41-.12,3.28,0,3.97-.03,8.92-.03,4.16-.05,5.04,0,7.09,.11,5.26,.48,9.23,.86,13.4,.18,1.98,.48,4.93,1.26,11.03,.64,4.99,1.56,11.66,2.81,19.63-.98,.56-1.56,1.22-1.88,1.64-.23,.3-.51,.68-.7,1.26-.21,.63-.2,1.15-.19,1.71,.03,1.15,.29,1.43,.14,2.14-.11,.54-.39,.95-.6,1.2-.42,.05-10.36,1.37-13.24,4.16-.8,.77-1.73,1.84-1.73,1.84-.63,.72-1.58,1.8-2.55,3.27-.31,.46-1.15,1.78-2.03,3.78-.75,1.69-1.94,4.35-2.48,8.02-.2,1.35-.36,3.21-.24,5.44-.26,3.11-.51,6.22-.77,9.33-.44,1.76-2.09,5.38-2.42,6.7-.57,2.28-.45,4.14-.44,5.27,.02,3.07,.53,5.35,.66,5.93,.22,1.28,.69,3.13,1.75,5.16,.43,.82,1.28,2.42,2.87,3.99,1.25,1.23,2.84,2.28,5.37,3.36,3.42,1.47,5.17,1.2,10.21,2.2,4.92,.98,5.05,1.6,10.98,2.96,3.86,.89,7.05,1.38,9.11,1.65,1.35,.73,2.71,1.46,4.06,2.2,.86,.43,1.9,1.02,2.96,1.87,.83,.66,1.51,1.32,2.05,1.92,1.76,1.25,3.51,2.51,5.27,3.76,1.63-1.11,3.26-2.22,4.88-3.34,1.35-.5,2.69-1,4.04-1.5,.98-1.22,1.97-2.44,2.95-3.66-1.33-1.44-2.65-2.88-3.98-4.32-1.31-1.2-2.45-3.04-3.98-3.47-2.14-.6-1.98-.91-3.7-2.13s-1.94-3.96-3.7-6.27c-1.76-2.31-3.29-2.78-4.94-4.17-1.76-.88-3.51-1.76-5.27-2.64-2.31-.91-4.72-1.65-6.92-2.74-2.2-1.1-3.66-3.15-5.49-4.72,1.32-2.45,2.64-4.9,3.95-7.36,1.2,.7,2.59,1.36,4.17,1.87,1.09,.35,1.61,.42,2.75,.77,1.3,.41,2.72,.98,4.22,1.79,3.36,.85,7.2,1.73,9.29,2.39,2.09,.66,3.08,1.73,5.24,1.48,1.49-.17,2.54-.85,3-1.15,1.94-1.24,4.87-2.87,8.92-4.97,.65,.52,1.3,1.04,1.94,1.57,5.81,4.93,11.63,9.87,17.44,14.8,7.15,5.47,14.62,10.98,22.42,16.49,5.26,3.72,10.46,7.29,15.6,10.73,6.31,3.63,12.72,7.48,19.22,11.58,2.69,1.7,5.33,3.4,7.93,5.1,3.62,1.71,7.25,3.41,10.87,5.12,2.8,1.25,5.61,2.51,8.41,3.76,3.55,.72,7.11,1.44,10.66,2.16,6.32,.41,12.65,.81,18.97,1.22,.63-1.42,1.27-2.83,1.9-4.25l.35,.17c-.45-1.78-.9-3.56-1.36-5.35ZM16.08,115.46c.08,.49,.15,.99,.23,1.48-.08-.49-.15-.99-.23-1.48h0Zm1.23,5.26h0c-1.64,.21-3.27,.41-4.91,.62,1.64-.21,3.27-.41,4.91-.62Zm-1.18,2.49c-.59,.07-1.18,.14-1.77,.2-.15-.05-.31-.1-.46-.15,.15,.05,.31,.1,.46,.15,.59-.07,1.18-.14,1.77-.2Zm-3.76-7.92h0c-.88-.81-1.75-1.62-2.63-2.44,.88,.81,1.75,1.62,2.63,2.44Zm0,7.39v.08h0v-.08Zm-.12,.95c.03,.34,.06,.67,.1,1.01h0c-.03-.34-.06-.67-.1-1.01Zm.02,1.68c0,.07,0,.15,0,.22h0c0-.08,0-.15,0-.22Zm-2.01,18.04c0-.26,0-.53,0-.79,.12-.25,.25-.5,.37-.75-.12,.25-.25,.5-.37,.75v.79Zm.08-2.81c-.16-.17-.31-.34-.47-.51,.16,.17,.31,.34,.47,.51,.3,0,.61,0,.91-.01-.3,0-.61,0-.91,.01Zm-4.02-11.97c1.04-1.66,2.08-3.32,3.11-4.99-1.04,1.66-2.08,3.32-3.11,4.99h0Zm.92,25.95c-1.34-.02-2.67-.04-4.01-.06h0c1.34,.02,2.67,.04,4.01,.06,4.91-.71,9.75-1.05,14.44-.51-4.69-.54-9.54-.19-14.44,.51Zm13.45-28.09c.17-.22,.35-.45,.54-.69h0c-.19,.24-.37,.47-.54,.69Zm-1.38-3.71h0c1.22-.36,2.45-.71,3.67-1.07-1.22,.36-2.45,.71-3.67,1.07Zm9.14,8.98c-.02,.33,.07,.67,.24,1.01-.16-.34-.26-.68-.24-1.01Zm2.74,18.93c-.21,.04-.36,.01-.44-.07,.15,.02,.3,.05,.44,.07Zm29.59-62.6l.37-1.54h0l-.37,1.54Zm.31,21.6h0c-.1,.05-.19,.11-.28,.17,.09-.06,.18-.11,.28-.17Zm0,7.83c-.27-.31-.53-.62-.8-.93-.78-.88-1.34-1.72-1.61-2.54,.27,.82,.83,1.66,1.61,2.54,.27,.31,.53,.62,.8,.93Zm-2.93-9.89h0c-1.57-1.95-3.14-3.9-4.71-5.84,1.57,1.95,3.14,3.9,4.71,5.84ZM54.23,3.56c-.05,.22-.09,.44-.14,.67,.05-.22,.09-.45,.14-.67,.22,.73,.67,1.52,.9,2.26-.23-.73-.67-1.53-.9-2.26Zm.34-1.5c-.49,.13-1,.21-1.52,.26,.52-.04,1.02-.12,1.52-.26Zm-3.23,68.63c.6-.35,1.2-.7,1.79-1.06-.6,.35-1.2,.7-1.79,1.06l-.08,2.9c.03-.97,.06-1.93,.08-2.9Zm-5.55-35.6h0c-.41-1.87-.83-3.75-1.24-5.62,.41,1.87,.83,3.75,1.24,5.62Zm-2.72,22.54c.74,.94,1.48,1.89,2.22,2.83-.74-.94-1.48-1.89-2.22-2.83h0Zm.09,31.01h0c-.96-.39-1.92-.77-2.88-1.16h0c.96,.39,1.92,.77,2.88,1.16Zm-1.98-30h0c-.53,.51-1.06,1.02-1.59,1.53,.53-.51,1.06-1.02,1.59-1.53Zm-1.81,32.72c5.3,6.39,10.6,12.78,15.89,19.18-5.3-6.39-10.6-12.78-15.89-19.18-.07-.91-.14-1.82-.22-2.73,.07,.91,.14,1.82,.22,2.73Zm14.3,22c-.15-.59-.29-1.17-.44-1.76-3.29-2.08-6.25-4.46-8.75-7.23,2.5,2.77,5.46,5.15,8.75,7.23,.15,.59,.29,1.18,.44,1.76Zm-14.69-52.61h0c-.63-1-1.27-1.99-1.91-2.99,.64,1,1.28,1.99,1.91,2.99Zm-3.59,42.18c.86,1.01,1.16,2.11-1.13,3.61h0c2.3-1.5,1.99-2.6,1.13-3.61Zm-2.03-77.48h0c.35,8.1,.7,16.2,1.05,24.3h0c-.35-8.1-.7-16.2-1.05-24.3Zm1.16-18.33c-.23-1.14-.62-2.28-1.2-3.42,.59,1.14,.97,2.28,1.2,3.42Zm-4.2,16.47c.12-.07,.26-.14,.4-.21-.14,.07-.28,.14-.4,.21h0Zm2.02,65.08c-.46-3.7-1.4-7.33-2.13-10.99-.03-.34-.07-.67-.1-1.01,.03,.34,.07,.67,.1,1.01,.73,3.66,1.67,7.3,2.13,10.99Zm-2.12-65.15l.04,.02-.04-.02h0Zm-3.02,4.08c-.65,.64-1.31,1.28-1.96,1.91,.65-.64,1.31-1.28,1.96-1.91h0Zm1.06,10.82c-.01-.14-.03-.28-.04-.43,.01,.14,.03,.28,.04,.43,.21,.24,.4,.48,.58,.72-.18-.24-.37-.48-.58-.72Zm-.97-11.89l-.09,1c.03-.33,.06-.67,.09-1,1.1-.72,2.21-1.44,3.31-2.15-1.1,.72-2.21,1.44-3.31,2.15Zm3.66,109.3c-.34-.52-.79-1.05-1.21-1.57,.43,.53,.88,1.05,1.21,1.57h0Zm31.29-2.8c-.86,.52-1.86,1.05-2.98,1.51-.42,.17-.82,.33-1.22,.46-2.39-.93-3.62-1.7-7.16-2.8-1.77-.55-3.01-.73-3.66-.83-.21-.03-.4-.05-.55-.07-.29-.04,.37,.11-.52-.06s-4.25-1.39-4.86-1.75-4.75-7.99-7.12-11.98c.68-.71,1.35-1.41,2.03-2.12,1.36-1,2.72-2,4.08-3,.93,.89,1.86,1.78,2.79,2.67,4.41,4.16,8.82,8.32,13.23,12.48,2.15,1.73,4.31,3.47,6.46,5.2-.17,.09-.34,.18-.5,.28Zm1-53.52c-.33,0-.67,0-1,0-1.09-2.74-2.17-5.47-3.13-8.23,.97,2.76,2.05,5.49,3.13,8.23,.33,0,.67,0,1,0h0Zm1.99-27.99c-1.58-2.32-2.66-4.69-3.36-7.09,.71,2.4,1.78,4.77,3.36,7.09h0Zm.43-50.99c.09,.21,.14,.42,.1,.61,.03-.19-.01-.39-.1-.61Zm2.95,109.15c.96-.04,1.81-.08,2.63-.12-.82,.04-1.67,.07-2.63,.12Zm3.55-8.1h0l.05-2.03c-.02,.68-.03,1.35-.05,2.03Zm60.91,16.89c0-.28,0-.56,.01-.83-.01,.27-.02,.55-.01,.83h0Zm-3.84,34.77c-.35,0-.64-.09-.82-.27,.18,.18,.47,.26,.82,.27Zm-.99-102.86c-.09-.5-.16-1-.19-1.47,.03,.47,.09,.96,.19,1.47Zm-1.51-17.64c-.36,.47-1.06,1.04-1.63,1.34,.57-.3,1.28-.88,1.63-1.34Zm-4.51,32.78c1.41,0,2.83,0,4.25,0h-4.25Zm-1.41-36.99c.27,.15,.53,.29,.8,.44-.27-.15-.53-.29-.8-.44h0Zm3.3,86.03h0c-1.4-.78-2.8-1.56-4.21-2.33,1.4,.78,2.81,1.56,4.21,2.33Zm-5.14-64.87c-.09-1.28-.2-2.55-.38-3.81,.19,1.26,.29,2.53,.38,3.81Zm.25,3.83h0c-1.52-4.48-3.04-8.96-4.58-13.49,1.54,4.53,3.06,9.01,4.58,13.49Zm-8,8.98c-.33,.32-.65,.64-.98,.96,.33-.32,.65-.64,.98-.96h0c.67,.01,1.33,.03,2,.04-.67-.01-1.33-.03-2-.04Zm1.16,7.47h0c-.07-.17-.13-.35-.21-.52,.07,.17,.14,.35,.21,.52Zm-.16-4.65c-.31,.05-.62,.1-.93,.15h0c.31-.05,.62-.1,.93-.15Zm-.89-4.69c-.05,.13-.08,.27-.11,.41,.03-.14,.06-.28,.11-.41,.31-.03,.62-.08,.92-.14-.31,.06-.61,.1-.92,.14Zm.95-.14h0c-.35,.33-.7,.67-1.05,1.01,.35-.34,.7-.67,1.05-1.01Zm.89-.92c.31-.29,.63-.57,.94-.86h0c-.31,.29-.63,.57-.94,.86Zm.04-.04l.03-.03,.02-.02-.06,.06Zm0-3.47c.26,.32,.53,.64,.79,.96-.26-.32-.53-.64-.79-.96h0c-.64-3.35-1.29-6.71-1.93-10.06-.39-.14-.79-.27-1.18-.41,.39,.14,.79,.27,1.18,.41,.02-.58,.03-1.16,.05-1.73-.33-.57-.67-1.14-1-1.71,.33,.57,.67,1.14,1,1.71-.02,.58-.03,1.16-.05,1.74,.64,3.36,1.29,6.71,1.93,10.06Zm-4.04,7.51h0c.35-.35,.7-.7,1.05-1.05-.35,.35-.7,.7-1.05,1.05Zm.99-.02h0c-.3,0-.6,.02-.9,.03,.3,0,.6-.02,.9-.03Zm1.16-33.3h0c-.42,.5-.81,.96-1.19,1.41,.38-.45,.77-.91,1.19-1.41Zm-1.08,9.76v0c-.49-1.57-.97-3.13-1.46-4.69,.48,1.56,.97,3.13,1.46,4.69Zm-1.07,23.56c-.31,.31-.63,.63-.94,.94h0c.31-.31,.63-.63,.94-.94Zm-2.95-33.05h0c-.3,.29-.6,.59-.9,.88l-.02,.03,.02-.03c.3-.29,.6-.58,.9-.88,.29-.3,.59-.6,.88-.9-.29,.3-.59,.6-.88,.9Zm.12,29.09c-.43,.26-.85,.52-1.28,.77h0c.43-.26,.86-.52,1.28-.77Zm.65-32.19c.17,.65,.33,1.3,.5,1.95,.22,.75,.44,1.5,.66,2.25-.22-.75-.44-1.5-.66-2.25-.17-.65-.33-1.3-.5-1.95Zm-3.84-20.98c1.02-2.59,2.56-3.34,4.52-2.87-1.96-.47-3.5,.27-4.52,2.87h0c-.6,2.2-1.19,4.4-1.79,6.6,.6-2.2,1.19-4.4,1.79-6.6Zm1.03,21.53c-.04,.11-.08,.23-.11,.35h0c.03-.12,.06-.24,.11-.35Zm-3.06-6.35c.74,.49,1.49,.98,2.23,1.46h0c-.74-.49-1.49-.97-2.23-1.46h0Zm1.1,2.89h0c-.35,.35-.71,.71-1.06,1.06,.35-.35,.71-.71,1.06-1.06Zm-2.01,2.01c.35-.35,.7-.7,1.04-1.04h-.01l-1.03,1.04Zm-.96-1.94h0v-.05c-.35,.35-.69,.69-1.03,1.04h0c.34-.35,.68-.69,1.03-1.04v.05Zm-2.05,1.96h0l1.89,1.07c-.63-.36-1.26-.71-1.89-1.07Zm.91,14.11c-.32,.3-.64,.61-.95,.91h0l.96-.91Zm-3.96-21.12c1.38,.28,2.76,.55,4.14,.83-1.38-.28-2.76-.55-4.14-.83h0Zm-1.02,11.02c.38-.39,.75-.78,1.13-1.17,.85-1.26,1.71-2.52,2.56-3.78,.47-.02,.94-.05,1.41-.07-.47,.02-.94,.05-1.41,.07-.85,1.26-1.71,2.52-2.56,3.78-.38,.39-.75,.78-1.13,1.17,.07,.62,.14,1.24,.21,1.86,.31,.08,.62,.16,.92,.25h0c-.31-.08-.62-.16-.92-.25h0c-.07-.62-.14-1.24-.21-1.86h0Zm-2.03-12.83l.26,.11-.26-.11h0Zm.07,.84h0c-.32,.37-.64,.74-.96,1.1,.32-.37,.64-.74,.96-1.1Zm.35,9.35c-.46-.75-.91-1.49-1.37-2.24-.29-.71-.59-1.42-.88-2.13,.29,.71,.59,1.42,.88,2.13,.46,.75,.91,1.49,1.37,2.24Zm-1.86-10.19c-.19,.56-.38,1.12-.56,1.68h0c.19-.56,.38-1.12,.56-1.68-.47-.11-.9-.16-1.29-.16,.39,0,.82,.06,1.29,.16Zm4.18,20.91c.48-.54,.96-1.09,1.44-1.63-.48,.54-.96,1.09-1.44,1.63-1.91,10.97-3.83,21.94-5.74,32.91,1.91-10.97,3.83-21.94,5.74-32.91Zm-16.63,75.91c-.43-.42-.86-.83-1.29-1.25l1.29,1.25h0Zm-.98-28.97v-.06s2.7,1.32,4.06,1.95c-1.35-.63-2.71-1.26-4.06-1.89Zm5.43-16.4c.53-3.51-.16-7.07-.42-10.63h0c.26,3.56,.95,7.11,.42,10.63Zm8.56,32.36h0c.5,.5,.99,1,1.49,1.5-.5-.5-.99-1-1.49-1.5Zm-.99-7.01c-2.32-1.83-4.64-3.66-6.95-5.49,2.32,1.83,4.64,3.66,6.95,5.49,3.44,2.09,6.88,4.19,10.32,6.28-3.44-2.09-6.88-4.19-10.32-6.28Zm10.93-72l.69-.64c-.23,.21-.46,.43-.69,.64h0Zm.04,6.06c.67,.35,1.34,.69,2.02,1.04,.36,.27,.73,.55,1.09,.82-.36-.27-.73-.55-1.09-.82-.67-.35-1.34-.69-2.02-1.04Zm3.02,98.95h0c.56,.16,1.11,.33,1.64,.52-.53-.19-1.08-.36-1.64-.52Zm1.86-61.94c-.24,0-.49,0-.73,.01,.24,0,.49-.01,.73-.01,.3,.2,.59,.41,.89,.61-.3-.2-.59-.41-.89-.61Zm1.05-1.07c.02-.32,.03-.64,.05-.95h0c-.02,.32-.03,.64-.05,.95Zm.18-1.04c.31-.33,.63-.67,.95-1-.32,.33-.63,.67-.94,1h0Zm.94-.99h0c.31-.31,.62-.62,.94-.94-.31,.31-.62,.62-.94,.94Zm.95,3.91h0c.04,.43,.09,.87,.13,1.31l-.13-1.31Zm1.05,2.07c-.04-.12-.05-.24-.06-.35,.01,.12,.02,.24,.06,.35h0Zm-.01-.94h0c-.29,.13-.59,.19-.91,.18h0c.32,0,.62-.05,.91-.18,.32-.32,.63-.63,.95-.95-.32,.32-.63,.63-.95,.95Zm1.97-1h0c-.33,.33-.67,.67-1,1,.33-.33,.67-.67,1-1Zm-.04,3.05c.33-.34,.67-.68,1-1.01-.33,.34-.67,.67-1,1.01h0Zm.66,68.15c2.87,3.39,5.77,6.76,8.76,10.06-2.99-3.29-5.89-6.66-8.76-10.06Zm29.36,30.89c-6.34-4.98-12.68-9.97-19.02-14.95,6.34,4.98,12.68,9.97,19.02,14.95h0Zm3.05-7.09h0c1.42,1.61,2.85,3.22,4.27,4.83-1.42-1.61-2.85-3.22-4.27-4.83Zm7.68,4.58c.76,.58,1.46,1.22,2.05,1.94-.59-.72-1.29-1.36-2.05-1.94Zm31.62,6.64c-1.58,2.76-2.64,5.76-2.46,9.31-.18-3.55,.88-6.55,2.46-9.31Zm-5.11-14.71c-.18-.56-.31-1.18-.39-1.83,.08,.65,.21,1.27,.39,1.83Zm-6.2-15.33c-.38,.41-.75,.74-1.03,.68,.28,.06,.65-.27,1.03-.68Zm-2.31,17c.4-1.24,.72-2.23,.97-3.02-.25,.79-.57,1.78-.97,3.02h0Zm3.3,35.84h0c1.07,1.32,2.18,2.56,3.34,3.67-1.16-1.11-2.27-2.35-3.34-3.67Zm14,2.89c-3-1.02-5.99-2.03-8.99-3.05-3.98-2.35-7.97-4.7-11.95-7.05h0c3.98,2.35,7.97,4.7,11.95,7.05h0c3,1.02,5.99,2.03,8.99,3.05h0Zm4.87-9.48c-2.58,.52-5.15,1.03-7.73,1.55,.89,2.46,1.77,4.92,2.66,7.38-.88-2.46-1.77-4.92-2.66-7.38-1.06-1.36-2.12-2.72-3.18-4.07-4-.29-8-.57-11.99-.86h0c4,.29,8,.58,11.99,.86h0c1.06,1.36,2.12,2.72,3.18,4.07,2.58-.52,5.15-1.03,7.73-1.55h0Zm.56,1.33h0c.24-.35,.48-.7,.72-1.06-.24,.36-.48,.71-.72,1.06Zm3.06-4.52h0c.76,.95,1.26,1.87,1.55,2.77-.3-.9-.79-1.82-1.55-2.77Z"/><path class="cls-7" d="M121.36,201.22l11.09-12.07v-2.42c-.1-.84-.2-1.69-.31-2.53-1.34-.46-2.67-.92-4.01-1.38-1.57-.54-5.94-1.73-6.82-1.99-1.69-.39-6.67-1.56-4.95-1.1,.39,.1,.53,.15,.53,.15,0,.02-4.39-1-7.6-1.73-2.04-.47-3.99-.83-6.3-1.41-.9-.23-3.3-.71-8.09-1.67-5.23-1.05-7.63-1.48-10.69-1.8-.8-.08-1.21-.13-1.83-.16-2.46-.14-4.46,.06-8.41,.46-1.08,.11-2.25,.24-3.71,.54-1.14,.23-2.17,.5-3.08,.78-.98,1.22-1.97,2.44-2.95,3.66-1.35,.5-2.69,1-4.04,1.5-1.12,0-3.9,.17-6.61,2.05-2.22,1.54-3.29,3.47-3.59,4.05-3.37,6.5,.55,14.52,5.23,19.25,5.38,5.44,14.18,6.44,21.38,7.42,5.7,.78,11.46,1.11,17.21,1.12,2.21,0,7.6-.11,13.82-.36,.19,0,.37-.02,.54-.02l4.14-2.39c.76-.81,2.13-2.32,3.87-4.32,0-.06,0-.13,0-.2s0-.13,0-.2l.24,.14,.73-.79,21.1,20.02h8.99l-25.9-24.58Z"/></g></g></svg>