<?xml version="1.0" encoding="UTF-8"?><svg id="Layer_2" xmlns="http://www.w3.org/2000/svg" viewBox="0 0 27.55 16.94"><defs><style>.cls-1{fill:#000100;}</style></defs><g id="SAFE"><g><path class="cls-1" d="M18.65,6.2c.36-.31,.56-.24,.78,.26,.28,.54,.4,1.13,.52,1.71,.1,.33,.23,.65,.28,1,.3,1.15,.55,2.3,.62,3.49,0,.13,0,.27-.01,.4-.1,.37-.17,.75-.22,1.14-.02,.15-.05,.38-.26,.33-.15-.04-.4-.1-.38-.35,.07-.86-.23-1.68-.31-2.53-.06-.62-.22-1.23-.31-1.85-.18-1.17-.57-2.3-.66-3.49,0-.04-.03-.07-.05-.11Z"/><path class="cls-1" d="M18.65,6.2c.3,.3,.2,.72,.29,1.08,.21,.83,.47,1.66,.53,2.51,.05,.73,.33,1.41,.33,2.16,0,.27,.07,.59,.22,.89,.18,.36,.06,.81,.05,1.22,0,.25,.3,.22,.27,.42,.17,0,.15-.13,.16-.22,.05-.38,.09-.76,.22-1.13,.17,.12,.12,.3,.13,.46,.02,.58-.16,1.13-.26,1.69-.13,.22-.19,.58-.51,.53-.29-.05-.27-.39-.33-.63-.08-.34-.14-.68-.11-1.03,.03-.33,.05-.65-.15-.95-.02-.13-.01-.26,.02-.39,.08-.34,.06-.68,.01-1.02-.01-.04-.02-.08-.03-.13,0-.37-.17-.71-.17-1.07,0-.11-.03-.21-.06-.31-.1-.43-.13-.87-.26-1.3-.04-.12-.08-.25-.08-.38,.04-.29-.08-.55-.14-.82-.02-.46-.26-.89-.16-1.37l.03-.23Z"/><path class="cls-1" d="M23.55,7.81l2.01-.26c.28-.04,.31,.14,.3,.35-.09,.18-.24,.04-.36,.07-.46,.02-.96-.01-1.38,.09-.5,.12-1.02,.15-1.51,.29-.17,.05-.34,.07-.5-.03-.04,.05-.12,.14-.22,.22-.97,.77-2.8,.1-2.78-.13,0-.06,.15-.07,2.32-.34,.9-.11,1.63-.21,2.12-.27Z"/><path class="cls-1" d="M18.62,6.43c.17,.44,.24,.91,.27,1.38-.55,.2-.67,.16-.89-.35,.01-.03,.03-.08,.03-.15,0-.06-.02-.1-.03-.13,.51-.81,.66-1,.68-.99,.01,0-.01,.11-.03,.16-.01,.04-.02,.07-.04,.09Z"/><path class="cls-1" d="M25.79,6.38c0-.27-.41-.15-.42-.43l.13-.15c.12-.11-.02-.36,.22-.41,.22,.14,.1,.37,.15,.56l.08,.33c-.04,.06-.08,.1-.16,.1Z"/><path class="cls-1" d="M25.87,5.95c-.09-.17-.13-.36-.15-.56,.08-.12,.17-.23,.17-.38,.21,.32,.04,.62-.03,.93Z"/><path class="cls-1" d="M22.5,7.98l-.33,.15c-.16,.14-.33,.19-.52,.04l-.03-.05c.28-.12,.58-.16,.89-.15Z"/><path class="cls-1" d="M18.1,7.25l-.04,.23c-.01,.2,.13,.42-.1,.58-.16-.21-.13-.43-.06-.66l.1-.24,.1,.08Z"/><path class="cls-1" d="M20.97,8.22s0-.05,0-.07h.65v-.02c.03,.14-.08,.18-.18,.23-.18,.04-.34,0-.47-.14Z"/><path class="cls-1" d="M27.5,8.29l-.73,1.52-.23,.33h0c-.32,.08-.24-.15-.18-.27,.14-.3,.09-.6,.03-.9-.02-.11-.02-.2,.07-.28,.04-.02,.07-.02,.11,0,.06,.04,.09,.12,.16,.18,.02-.07,.05-.15,.08-.23,.09-.24,.19-.45,.3-.62,.02-.04,.05-.11,.12-.18,.07-.07,.15-.1,.19-.12,.03,0,.05,0,.08,0,.02,.03,.03,.07,.04,.1,.06,.19,0,.37-.03,.46Z"/><path class="cls-1" d="M25.79,6.38c.03-.06,.09-.09,.16-.1,.26,.65,.4,1.34,.6,2.01,.1,.32,.14,.47,.13,.48,0,0-.02-.03-.04-.08-.03,.04-.07,.04-.11,.01h0c-.29-.1-.23-.4-.34-.6-.09-.25-.25-.49-.24-.77-.06-.31-.11-.63-.17-.94Z"/><path class="cls-1" d="M20.4,9.19c-.1,0-.2,0-.3-.01l-.25-.97h.15c.14,.17,.35,.22,.53,.34h.02v-.02c.11,.04,.24-.04,.33,.06,.05,.24-.3,.32-.23,.57-.08,.09-.16,.1-.26,.03Z"/><path class="cls-1" d="M19.59,11.68v.08s-.06,.07-.1,.08c-.13,.05-.41,.03-.41,.03-.12,0-.3,.05-.55,.36-.1-.55-.2-1.1-.31-1.66-.05-.29-.11-.58-.17-.88-.02-.11-.03-.21-.05-.32-.09-.58-.14-1.15-.16-1.69,.09,.01,.38,.07,.58,.33,.23,.3,.22,.77-.03,1.14,.51,.41,.67,.97,.66,1.59,0,.05,.01,.1,.02,.16,.04,.05-.02,.21,.14,.14,.36,.07,.2,.45,.37,.63Z"/><path class="cls-1" d="M20.48,15.29v.25c-.06,.26-.21,.48-.35,.7-.09,.1-.18,.23-.32,.19-.21-.06-.13-.29-.2-.44-.01-.04-.02-.07-.03-.11,0-.16-.05-.31-.14-.44-.04-.16-.06-.33-.09-.5,0-.04,0-.07,0-.11,.02-.14,.09-.28-.05-.4-.03-.02-.05-.05-.07-.08-.01-.03-.02-.07-.03-.1,0-.24,.12-.44,.18-.67,0-.05,.01-.11,.02-.16,0-.06,.02-.11,.05-.16,.04-.05,.08-.09,.14-.05,.34,.23,.16,.56,.15,.84-.01,.47,.07,.92,.18,1.37,.03,.11,0,.3,.18,.31,.13,0,.18-.14,.23-.25,.04-.07,.08-.13,.13-.2Z"/><path class="cls-1" d="M19.6,13.21l-.08,.08c-.09,.04-.08,.1-.02,.16v.16c-.09,.07-.19,.12-.3,.14-.04,0-.08,0-.11-.01-.12-.06-.23-.13-.27-.27,0-.15-.03-.29-.05-.43,0-.12-.03-.23-.06-.33-.02-.12-.02-.24,.04-.35,.32-.21,.42,.17,.65,.24,.12,.03,.3,0,.22,.23v.41Z"/><path class="cls-1" d="M18.31,9.26c0-.1-.06-.16-.17-.16-.07,.02-.1-.02-.13-.08-.02-.11,.02-.19,.11-.23,.27-.12,.42-.36,.61-.57,.03-.02,.07-.03,.11-.04,.24,.06,.09,.31,.2,.43,0,.11,0,.22,.07,.32-.06,.07-.13,.13-.22,.16-.21-.02-.34,.25-.57,.17Z"/><path class="cls-1" d="M19.04,8.61c-.13-.11-.05-.35-.26-.42-.15-.03-.29-.08-.45,.02-.12,.08-.27,.13-.39-.02v-.14c.12-.18-.04-.41,.12-.58,.16,.41,.52,.3,.83,.32,.11,.26,.17,.53,.15,.81Z"/><path class="cls-1" d="M18.87,9.01c.06-.08,.15-.08,.23-.08,.11,.45,.2,.91,.25,1.37,0,.1-.06,.17-.14,.23-.05,.03-.1,.05-.16,.04-.04-.52-.2-1.03-.19-1.55Z"/><path class="cls-1" d="M19.61,12.8c-.04-.14-.16-.06-.25-.09-.14-.16-.08-.36-.11-.54,0-.07,0-.15,.04-.21,.04-.1,.16-.11,.22-.19,.03,0,.05-.01,.08,0,.15,.35,.12,.69,.02,1.04Z"/><path class="cls-1" d="M19.11,10.55l.06-.09c.08,.03,.17,.06,.25,.09,.06,.37,.17,.74,.17,1.12-.19-.04-.18-.21-.22-.34-.04-.15-.08-.25-.25-.23-.05-.08-.06-.17-.08-.25,0-.07-.01-.15,0-.22,.02-.03,.04-.06,.07-.09Z"/><path class="cls-1" d="M19.43,10.56c-.07,.04-.04,.21-.16,.18-.12-.04-.07-.17-.09-.27l.18-.16c.08,.07,.09,.16,.07,.26Z"/><path class="cls-1" d="M20.21,15.17c-.1-.12-.14-.21-.06-.32,.15,.08,.11,.18,.06,.32Z"/><path class="cls-1" d="M25.96,7.32c.2,.2,.2,.5,.34,.73,.07,.14,0,.22-.13,.19-.15-.03-.34-.06-.36-.28,0-.18-.04-.35-.24-.42,.12-.09,.35,0,.39-.23Z"/><path class="cls-1" d="M20.54,8.55c-.3,.07-.49-.02-.53-.34h.4c.04,.12,.18,.19,.13,.34Z"/><path class="cls-1" d="M25.8,7.97c.08,.06,.21,.01,.28,.14,.07,.12,.17,.08,.2-.06,.11,.2,.09,.45,.23,.64-.09,.06-.08,.15-.07,.23l-.06,.02c-.25-.49-.68-.44-1.1-.37-.43,.07-.87,.13-1.3,.22-.27,.06-.23,.04-2.11,.28-.43,.05-1.07,.14-1.86,.24v-.22c.3,.04,.42-.02,.48-.09,.04-.04,.03-.09,.08-.14,.1-.08,.2-.15,.31-.23,.12-.25,.37-.17,.57-.2,.15,0,.3,0,.45-.06,.08-.03,.16-.03,.24-.02,.58,.06,1.13-.12,1.69-.21,.19-.03,.38-.09,.58-.08,.39,.02,.76-.1,1.14-.16,.12-.1,.15,.08,.24,.08Z"/><path class="cls-1" d="M25.56,7.89c-.51,.29-1.1,.19-1.65,.31-.44,.1-.88,.16-1.33,.24-.18,.03-.35,.02-.5-.07-.01-.04,0-.06,.04-.07,.64-.1,1.27-.15,1.9-.33,.48-.14,1.02-.06,1.53-.07Z"/><path class="cls-1" d="M22.12,8.29l-.04,.07-.15,.1c-.15,.05-.3,.01-.45,.02-.19-.04-.15-.11-.04-.2l.16-.16c.19,.01,.37,.1,.56,0l-.05,.16Z"/><path class="cls-1" d="M14.04,2.49c-.04-.14,.09-.17,.16-.24,.26-.04,.32,.2,.47,.32-.07,.03-.08,.1-.08,.16-.11,.1-.22,.04-.33,.01-.11-.05-.21-.12-.22-.25Z"/><path class="cls-1" d="M14.76,2.91c-.25-.03-.51,0-.72-.17,.05-.1,.16-.05,.24-.08l.32,.07,.16,.18Z"/><path class="cls-1" d="M21.45,8.29c-.02,.07-.06,.14,.04,.18,0,.03,0,.05-.03,.06l-.56,.09c-.1-.05-.25,.07-.32-.09,.07-.18,.22-.27,.4-.32,.17-.03,.31,.13,.48,.07Z"/><path class="cls-1" d="M7.1,.87h-.02c-.12-.15-.04-.22,.11-.26,.1-.03,.16-.17,.28-.12,.45,.16,.94,.17,1.38,.37,.03,.01,.04,.07,.05,.1l-.36,.3-.13-.07c-.22,0-.37-.23-.6-.18-.09-.03-.18-.02-.27-.03-.11-.18-.29-.08-.44-.12Z"/><path class="cls-1" d="M10.42,1.2c.14,.02,.31-.05,.47,.09-.22,.12-.35,.03-.47-.09h0Z"/><path class="cls-1" d="M19.92,16.93c-.27,.07-.36-.14-.42-.31-.26-.77-.48-1.54-.55-2.36,.2-.03,.16,.16,.23,.24,.07,.12,.23,.17,.26,.32,0,.03,0,.05,0,.08-.04,.21-.01,.41,.09,.6,.27,.03,.11,.24,.15,.37-.03,0-.05,.03-.05,.05,0,.03,.03,.03,.06,.02,.12,.12,.05,.28,.09,.42,.14,.01,.18-.15,.29-.17,.17-3.51,.32-4.32,.44-4.32,.08,0,.22,.34,.27,.59,.04,.17,.04,.3,.04,.39,.01,.63,.02,.95,0,1.12-.04,.62-.09,1.36-.45,2.21-.11,.26-.23,.47-.3,.59l-.18,.16Z"/><path class="cls-1" d="M20,16.83l.08-.64c.03-.28,.3-.41,.4-.64,.05,.29-.16,.52-.15,.8-.14,.14-.1,.39-.32,.48Z"/><path class="cls-1" d="M26.21,9.7c.05-.1,.1-.22,.13-.36,.03-.11,.04-.21,.05-.3,.04-.08,.13-.09,.17-.06,.04,.03,.05,.11,0,.17,0,.49-.06,.69-.12,.78-.01,.02-.06,.09-.04,.14,.02,.04,.06,.07,.14,.08-.09,.2-.24,.33-.48,.31h0c-.1-.04-.16-.11-.15-.23,.05-.08,.1-.17,.15-.26,.05-.09,.1-.18,.15-.27Z"/><path class="cls-1" d="M26.61,8.69c.24-.02,.22-.31,.4-.39,.06,.33-.19,.54-.28,.86-.15-.16-.17-.32-.21-.47h.08Z"/><path class="cls-1" d="M12.51,4.82c-.89,.37-1.83,.62-2.75,.9-.21,.03-.22-.06-.14-.22,.31-.22,.68-.27,1.03-.39,.43-.15,.86-.28,1.28-.43,.15-.05,.31-.11,.23-.33,.07-.31,.26-.3,.5-.2,.12,.1,.12,.23,.08,.36-.06,.07-.18,.1-.18,.22l-.05,.09Z"/><path class="cls-1" d="M16.12,9.42c.4-.3,.84-.54,1.3-.75,.03,.03,.04,.06,.04,.1-.05,.18-.24,.26-.29,.43-.35,.44-.72,.52-1.05,.21Z"/><path class="cls-1" d="M16.12,9.42c.49,.14,.73,.06,.98-.32,.26-.15,.4-.53,.8-.43,.07,.18-.08,.24-.19,.32-.16,.07-.29,.19-.4,.32-.19,.22-.43,.34-.71,.37-.33-.04-.56,.2-.86,.27-.04,0-.07-.02-.1-.05,.05-.09,.37-.41,.47-.48Z"/><path class="cls-1" d="M17.43,8.77v-.1c.06-.09,.21-.09,.23-.22,0-.13,.08-.13,.17-.11,.04-.05,.08-.09,.12-.14,.15,.02,.29,.03,.4-.1,.21-.24,.33-.12,.44,.1h0c-.18,.22-.47,.26-.69,.41-.24,0-.43,.16-.67,.16Z"/><path class="cls-1" d="M15.67,11.52c.4-.02,.83-.02,1.28,0,.41,.01,.8,.04,1.17,.07,.09,.01,.17,.02,.26,.04,.06,0,.11,.02,.17,.03,.18,.12,.39,.06,.57,.11,.03,.04,.03,.09,.01,.14-.39,.26-.83,.12-1.24,.1-.22,0-.45-.05-.67-.05-.33-.04-.66-.08-.98-.17-.03,0-.14-.06-.29-.13-.12-.05-.21-.1-.28-.14Z"/><path class="cls-1" d="M19.11,10.55v.08c-.06,.05-.01,.19-.15,.17,.04-.3-.08-.58-.1-.87-.02-.29-.35-.47-.55-.68,.16-.14,.32-.3,.56-.24,.25,.49,.19,1.02,.24,1.54Z"/><path class="cls-1" d="M19.12,11.84v-.08h.4c.08,.17-.02,.17-.15,.15-.09,.01-.19,.01-.25-.08Z"/><path class="cls-1" d="M19.13,10.86c.11,.09,0,.17,0,.25-.19,.06-.12-.09-.13-.17,.01-.08,.05-.13,.14-.09Z"/><path class="cls-1" d="M19.13,10.86l-.14,.09-.03-.14,.15-.17v.23Z"/><path class="cls-1" d="M19.19,13.72c.07-.13,.2-.09,.31-.11l-.22,.65c-.29-.14-.21-.33-.09-.54Z"/><path class="cls-1" d="M19.19,13.72c.04,.18-.08,.38,.09,.54v.08c0,.1-.03,.18-.12,.23h-.06c-.1-.07-.03-.24-.15-.31v-.09c.01-.17,0-.36,.17-.48,.02,.01,.05,.02,.07,.03Z"/><path class="cls-1" d="M19.44,14.82c-.13-.06-.27-.11-.34-.24h.01c.11-.05,.14-.18,.24-.24,.21,.13,.21,.29,.09,.48Z"/><path class="cls-1" d="M19.53,15.5c-.2-.18-.24-.37-.09-.6,.04,.2,.12,.39,.09,.6Z"/><path class="cls-1" d="M19.51,13.45c-.12-.01-.19-.08-.26-.18,.11-.1,.19,0,.28,.02l-.02,.16Z"/><path class="cls-1" d="M19.69,15.94c-.02,.06-.08,.14-.13,.09-.07-.05-.08-.18-.02-.24,.06-.06,.09,.05,.14,.07,0,.03,0,.05,.01,.07Z"/><path class="cls-1" d="M19.36,14.33c-.05,.11-.08,.24-.24,.24l.16-.24h.08Z"/><path class="cls-1" d="M19.36,12.14c.07,.19-.01,.38,0,.57-.24-.06-.31-.39-.59-.39-.08,0-.13-.03-.18-.08-.42-.11-.85-.02-1.27-.05-.15-.01-.37,.06-.38-.22,.24-.12,.5-.04,.75-.06,.3,.07,.61,.02,.92,.04,.12,0,.27-.07,.36,.09,.06,.13,.17,.08,.27,.07,.04,0,.07,.01,.1,.03Z"/><path class="cls-1" d="M19.12,13.69c-.02,.11-.04,.23-.06,.35-.09,.76,.05,1.42,.22,1.91-.19-.81-.37-1.66-.52-2.56-.07-.43-.14-.85-.19-1.27,.09,.11,.24,.34,.31,.66,.06,.28,.03,.52,0,.65l.24,.25Z"/><path class="cls-1" d="M18.71,12.26l.06,.07,.04,.39s-.02,.1-.02,.14c-.01,.05-.04,.09-.09,.1l-.15-.66c.03-.1,.08-.15,.17-.05Z"/><path class="cls-1" d="M18.69,12.96l.03-.14c.19-.03,.06,.16,.15,.21,.03,.14,.13,.27,0,.41l-.08-.02-.1-.46Z"/><path class="cls-1" d="M18.87,13.03l-.15-.21,.09-.11c.14,.08,.04,.21,.06,.32Z"/><path class="cls-1" d="M18.07,9.02c-.38,0-.59,.31-.79,.54-.45,.52-1.09,.81-1.53,1.33-.18-.21-.36,0-.54,0-.2-.09-.35-.26-.44-.45-.1-.2-.14-.42,.18-.48l.25,.19c.11,.11,.21,.26,.4,.13,.02-.03,.03-.06,.04-.09,.04-.13,.11-.23,.25-.27,.71-.14,1.32-.44,1.79-1.01l.26-.22c.03-.08,.1-.11,.14-.18,.21-.16,.44-.3,.71-.33-.08,.28-.24,.5-.5,.63-.1,.05-.21,.06-.22,.2Z"/><path class="cls-1" d="M18.88,12.16c.02-.14-.05-.15-.17-.15-.32,0-.64-.02-.96-.03-.14-.04-.28-.01-.42-.02-.07,0-.16,0-.13-.12,.49,.03,.98,.07,1.48,.09,.16,0,.32,.05,.46-.08,.09,0,.18,0,.25,.08,0,.08,0,.15-.01,.23-.03,0-.05,.01-.08,.02-.13-.03-.27,.1-.4,0Z"/><path class="cls-1" d="M21.45,8.53s.02-.04,.03-.06h.45c-.15,.12-.32,.05-.48,.06Z"/><path class="cls-1" d="M11.65,3.05h.37c.09,.08,.23,.08,.28,.22-.05,.24-.24,.35-.43,.44-1.04,.45-2.08,.88-3.18,1.19-.19,.05-.4,.12-.51-.14-.06-.15-.03-.3,.05-.44,.12-.16,.32-.2,.48-.3,.46-.17,.93-.28,1.38-.48,.53-.13,1.02-.4,1.56-.48Z"/><path class="cls-1" d="M12.35,3.14c.19,.02,.37,.04,.27,.33-.02,.05,.08,.15,.13,.23,0,.09-.06,.15-.13,.18-.12,.05-.53,.3-.51,.36,.01,.04,.21,.03,.89-.12,.04,0-1.23,.43-2.06,.69-.8,.26-1.46,.47-1.9,.62-.25,.16-.52,.13-.63,0-.06-.08-.06-.19-.05-.25,.34-.24,.77-.26,1.16-.39,.83-.28,1.61-.64,2.36-1.08,.18-.08,.46,0,.46-.33-.02-.05-.02-.1-.02-.15,0-.04,.01-.07,.04-.09Z"/><path class="cls-1" d="M13.56,2.57c.16,.06,.35,.04,.48,.17-.31,.05-.38,.31-.47,.55-.23,.17-.4,0-.57-.11-.43-.29-.93-.26-1.4-.36-.1-.02-.18,.02-.21,.13l-.02,.05s-.07,0-.1,0c-.1-.06-.21-.12-.29-.2-.12-.14-.29-.09-.44-.1-.15,0-.29-.03-.37-.18,0-.08,.03-.12,.09-.16,.08-.03,.17-.04,.26-.02,.44,.06,.85,.2,1.3,.24,.31,.03,.6,.03,.91-.06,.28-.09,.58-.12,.84,.08Z"/><path class="cls-1" d="M11.65,3.05c-.48,.28-1.01,.46-1.55,.59-.09-.12-.03-.22,.07-.25,.4-.14,.77-.38,1.21-.41v-.03c.08,.05,.21-.03,.26,.1Z"/><path class="cls-1" d="M12.35,3.14s0,.05,0,.08c-.03,.03-.06,.04-.09,0-.11-.01-.19-.06-.24-.16l.33,.07Z"/><path class="cls-1" d="M4.86,6.61s-.05-.01-.07-.01c-.04-.07,0-.11,.06-.15,.13-.07,.28-.03,.41-.05,.06,.02,.11,.04,.08,.12-.09,.11-.21,.06-.32,.09h-.16Z"/><path class="cls-1" d="M3.07,5.92l-.22-1.89,.04-.04c.11-.05,.23-.06,.34,0,.24,.22,.25,.53,.23,.81-.02,.33,.02,.62,.23,.88,0,.04,0,.08,0,.12-.1,.17-.25,.26-.45,.27-.02-.02-.05-.04-.08-.06-.03-.03-.06-.06-.08-.08Z"/><path class="cls-1" d="M4.14,6.67l-.16,.09c-.16,0-.32,.02-.48,.02-.22,0-.4-.07-.4-.34,.03-.05,.06-.1,.11-.12,.04,0,.07-.01,.11,0,.17,.03,.34,0,.51,.04,.15,.06,.32,.1,.31,.32Z"/><path class="cls-1" d="M2.59,3.24l.03-.17,.31-.18c.09,.03,.12,.1,.13,.18-.02,.12,0,.24-.05,.35-.05,.14-.14,.18-.26,.06-.04-.04-.09-.06-.14-.09l-.02-.14Z"/><path class="cls-1" d="M3.25,6.36l-.16,.09c0-.13-.01-.26-.02-.4-.03-.49-.06-.96-.11-1.42,0,.37,.06,.78,.2,1.22,.02,.07,.04,.13,.07,.19,.12,.1,.11,.2,.02,.31Z"/><path class="cls-1" d="M2.77,2.01c-.21,.04-.35,.36-.63,.18,.19-.14,.39-.25,.63-.26,.04,.03,.04,.06,0,.09Z"/><path class="cls-1" d="M2.77,2.01v-.09c.1-.09,.21-.1,.33-.07,0,.02-.01,.04,0,.06l-.32,.1Z"/><path class="cls-1" d="M3.69,2.34l.85-.51s.03,.07,.03,.11c-.24,.4-.7,.53-1.04,.8-.16,.13-.32,.24-.32,.47-.01,.15,.02,.31-.13,.42-.23-.15-.05-.38-.12-.56l-.03-.19c.25-.18,.5-.36,.75-.55Z"/><path class="cls-1" d="M10.5,2.41h-.24c-.44,0-.82-.24-1.24-.31-.13-.19-.47-.04-.53-.33,.12-.03,.31,.08,.29-.2-.02-.19,.14-.1,.23-.08,.66,.17,1.33,.34,1.99,.51-.02,.3-.07,.57-.49,.4Z"/><path class="cls-1" d="M10.5,2.41c.16-.04,.49,.12,.33-.29,0-.01,.1-.07,.15-.11,.36,.05,.7,.2,1.07,.27,.38,.08,.75,.14,1.14,.13,.15,0,.3,0,.37,.16-.34-.08-.67-.19-.98,.1-.06,.05-.18,.06-.27,.05-.62-.02-1.23-.13-1.82-.32Z"/><path class="cls-1" d="M8.48,1.77c.16,.15,.45,0,.57,.24,.05,.05,.05,.11,.02,.16-.04,.05-.1,.06-.16,.06-.15-.02-.29-.08-.44-.12-.04,0-.07-.02-.11-.03-.15-.07-.33-.09-.44-.23-.05-.18-.26-.13-.36-.24,.32-.04,.6,.15,.92,.16Z"/><path class="cls-1" d="M7.83,.95c.33-.21,.35,.26,.58,.25-.15,.01-.3,.04-.42-.08-.05-.06-.22-.01-.17-.17Z"/><path class="cls-1" d="M7.1,.87c.15-.02,.34-.3,.43,.07,.02,.02,.03,.03,.02,.05,0,.02-.01,.03-.02,.03-.14-.06-.32,0-.43-.15Z"/><path class="cls-1" d="M7.53,1.02s0-.05,0-.08h.3l.17,.17c-.17,.03-.31-.06-.46-.09Z"/><path class="cls-1" d="M15.82,12.34c-.24-.03-.52,.05-.65-.24-.2-.23-.07-.41,.07-.6,.09-.03,.16,0,.23,.05,.23,.26,.52,.37,.88,.34,.2-.02,.42-.06,.6,.11,.43,.18,.88,.04,1.32,.08,.16,.02,.36-.04,.44,.18l-.17,.05c-.91,0-1.82,.11-2.73,.04Z"/><path class="cls-1" d="M9.61,12.8l-.07,.09c-.4-.14-.82,.08-1.22-.08-.1-.05-.16-.13-.17-.24,.01-.03,.03-.06,.05-.08,.07-.06,.15-.11,.25-.12h.04l-.03-.03c-.07-.08-.11-.16-.06-.27,.05-.03,.1-.05,.15-.04,.12,.02,.24,.08,.37,.1,.22,.06,.38-.1,.56-.17,.12-.01,.2,.03,.27,.13,.04,.08,.05,.16,.05,.25-.02,.17-.09,.33-.18,.47Z"/><path class="cls-1" d="M8.08,11.51c0-.27,.25-.32,.41-.45,.22-.26,.51-.13,.78-.14,.04,0,.09,0,.13,.02,.14,.05,.26,.12,.32,.26,.03,.1,.05,.21,0,.31-.04,.05-.11,.06-.15,.11-.02,.02-.04,.04-.07,.06-.09,.05-.16,0-.23-.06-.31-.2-.53,.05-.79,.16-.24,.07-.42,.04-.41-.27Z"/><path class="cls-1" d="M9.44,11.04s-.05,0-.07-.02c-.31-.18-.63-.21-.97-.15-.21-.09-.18-.34-.32-.48v-.25c.51-.15,.87,.23,1.3,.36,.04,.04,.07,.09,.1,.14,.03,.11,.1,.21,.09,.33-.02,.06-.05,.11-.12,.06Z"/><path class="cls-1" d="M8.32,12.81c.2-.03,.4-.05,.59-.09,.25-.06,.46-.02,.63,.17-.26,.21-.53,.39-.89,.23-.1-.11-.27-.15-.33-.31Z"/><path class="cls-1" d="M8.4,10.87c.4-.26,.62-.22,.97,.15-.29,.01-.59,.03-.88,.04-.03-.06-.06-.13-.09-.19Z"/><path class="cls-1" d="M8.08,11.51c.09,.16,.18,.31,.4,.17,.04,.02,.07,.04,.1,.07,.06,.11,.1,.23-.03,.32h-.14c-.17,.14-.33,.19-.41-.08,0-.17-.04-.34,.08-.49Z"/><path class="cls-1" d="M8,11.99c.09,.22,.29,0,.41,.09l.16,.24c.01,.06-.01,.09-.08,.08l-.25,.16c-.06-.05-.09-.13-.18-.14-.09-.13-.09-.28-.07-.43Z"/><path class="cls-1" d="M8.07,12.42c.2-.12,.15,.06,.18,.14h-.09l-.08-.14Z"/><path class="cls-1" d="M11.55,11.76c-.44,.28-.93,.25-1.42,.24-.12-.09,0-.19,0-.28,.01-.03,.03-.07,.06-.09,.07-.06,.16-.1,.25-.11,.29,.07,.57,.1,.87,.03,.13,.02,.22,.08,.24,.21Z"/><path class="cls-1" d="M11.55,11.76l-.24-.16c-.19-.04-.12-.17-.09-.28,.05-.06,.12-.1,.19-.13,.24-.05,.47-.29,.72-.02,.02,.04,.02,.08-.01,.11l-.09,.24-.47,.25Z"/><path class="cls-1" d="M9.61,12.8c-.01-.17-.03-.34,.09-.48,.06-.09,.11-.21,.26-.2,.04,0,.07,.03,.08,.07,.01,.31-.22,.45-.43,.61Z"/><path class="cls-1" d="M10.19,11.75c.16,.12-.05,.16-.06,.25l-.09,.18-.03-.03c-.17-.37-.15-.42,.18-.4Z"/><path class="cls-1" d="M10.9,8.37c.22,.22,.14,.31-.09,.52-.3,.28-.57,.5-.99,.46-.09,0-.11-.04-.13-.11-.03-.06,0-.1,.04-.15,.19-.15,.36-.33,.45-.57,.2-.23,.47-.16,.73-.16Z"/><path class="cls-1" d="M10.17,8.54c.14,.39-.2,.47-.41,.63-.05-.03-.12,0-.15-.07,.17-.21,.27-.47,.56-.56Z"/><path class="cls-1" d="M11.79,8.44l.08,.02c.09,.21-.07,.23-.21,.28-.04,0-.08-.01-.11-.04-.06-.03-.07-.09-.07-.15l.31-.11Z"/><path class="cls-1" d="M9.36,9.41v-.14c.12-.01,.21-.06,.26-.17l.15,.07-.07,.08c-.11,.06-.19,.19-.33,.15Z"/><path class="cls-1" d="M9.7,5.54c-.12,.11-.04,.15,.06,.19-.1,.24-.21,.48-.31,.71-.12,.06-.2-.03-.29-.07-.09-.05-.15-.14-.22-.21-.02-.03-.03-.06-.03-.1,0-.08,0-.17,.02-.25,.01-.03,.04-.05,.06-.07,.08-.05,.19-.06,.27-.11,.1-.06,.18-.15,.29-.2,.08,0,.14,0,.14,.11Z"/><path class="cls-1" d="M14.26,6.95s-.02-.02-.04-.06c0-.02-.01-.03-.02-.04,0,0-.01,0-.03-.02,0,0-.02-.02-.03-.03,0,0,0,0,0-.02,0,0,0,0,0-.01,0,0,0,0-.02,0-.02,0-.03,0-.04,0h0s0-.02-.02-.03c0,0-.01-.02-.05-.03-.05-.01-.11,.06-.24,.14-.06,.04-.08,.04-.09,.04-.08,0-.17-.07-.2-.18-.09,0-.21-.03-.13,.13,.07,.13,.07,.27,.08,.41h0c0,.14-.01,.28-.03,.43,0,.05-.01,.11-.02,.16-.03,.1-.08,.25-.19,.4-.14,.2-.31,.31-.41,.36-.16-.03-.23,.11-.31,.2-.14,.14-.17,.35-.3,.5-.09,.11-.18,.23-.26,.35-.04,.07-.07,.13-.05,.21,.09,.17,.22,.11,.32,.03,.11-.08,.23-.1,.36-.09,.04,0,.07-.02,.1-.05,.04-.11,.01-.25,.12-.34,.23-.23,.53-.39,.71-.67,.04-.07,.04-.14,.03-.22,.02-.02,.21-.37,.23-.41,.02-.03,.03-.06,.04-.09,.02-.03,.03-.06,.04-.12,0-.03,.02-.08,.04-.13,0,0,.03-.18,.14-.34,.05-.07,.08-.08,.14-.14,.05-.05,.09-.07,.12-.12,.02-.03,.05-.07,.05-.14,0-.02,0-.05-.01-.09Z"/><path class="cls-1" d="M14.16,7.04c-.09,.19-.18,.33-.31,.45-.05,.04-.1,.06-.15,.02-.03-.02-.04-.05-.06-.08,.19-.1,.16-.45,.52-.39Z"/><path class="cls-1" d="M14.85,11.92c-.6-.18-1.09-.55-1.52-1-.19-.2-.38-.54-.74-.21-.07,.03-.1-.02-.12-.08,0-.14,.05-.26,.11-.38,.08-.14,.18-.28,.26-.42,.07-.19,.07-.42,.24-.56,.55-.34,.8-.28,1,.23,0-.13-.07-.36,.2-.19,.09,.05,.16,.14,.26,.19,.19,.11,.28,.31,.4,.48-.22,.2-.2,.38,.02,.57,.11,.09,.2,.21,.29,.32,.11-.01,.14,.07,.16,.15,0,.13-.03,.24-.08,.35-.17,.18-.18,.49-.48,.56Z"/><path class="cls-1" d="M14.54,9.49c-.16,.03-.23-.16-.38-.17-.07,.16,.1,.27,.09,.44-.11-.02-.18-.1-.23-.18-.3-.53-.35-.55-.88-.25-.12-.24,.07-.37,.19-.52,.32-.13,.44,.22,.69,.29,.19,.11,.4,.18,.51,.39Z"/><path class="cls-1" d="M14.03,9.1c-.28,.06-.39-.29-.65-.26-.03-.06-.02-.12,.02-.17l.07-.16,.56,.59Z"/><path class="cls-1" d="M15.73,10.38c-.25,.1-.51,.23-.54-.22,.21,.01,.32-.14,.46-.26h.09c.03,.16-.11,.23-.14,.35,.03,.06,.09,.08,.14,.12Z"/><path class="cls-1" d="M18.07,8.53c.01,.11-.05,.15-.14,.18-.34,0-.52,.31-.82,.4,.02-.19,.21-.22,.32-.33,.21-.08,.43-.16,.64-.24Z"/><path class="cls-1" d="M17.66,8.92c-.38,.64-1.02,.89-1.67,1.13-.03,.01-.07-.03-.11-.04,.14-.32,.46-.34,.74-.43,.25,.01,.43-.11,.58-.3,.12-.16,.25-.32,.46-.37Z"/><path class="cls-1" d="M16.63,9.59c-.25,.14-.49,.28-.74,.43-.17,.04-.15,.18-.16,.3-.11,.03-.22,.08-.32-.03l.32-.37c.26-.2,.54-.38,.89-.32Z"/><path class="cls-1" d="M16.95,12c-.23,0-.46-.04-.68,0-.41,.1-.66-.1-.87-.4-.03-.06,0-.1,.06-.13,.11-.05,.2,.05,.31,.04h.14c.4,.24,.85,.22,1.28,.32,.15,.17,.39,0,.56,.14-.27,0-.53,.01-.8,.02Z"/><path class="cls-1" d="M15.34,11.04l-.09-.18c.08-.23,.3-.2,.46-.2,.1,0,0,.16,.03,.24-.04,.11-.11,.19-.22,.23-.1,.05-.14-.02-.18-.09Z"/><path class="cls-1" d="M15.34,11.04l.18,.09v.15c-.02,.08,.05,.17-.03,.24l-.09,.09-.15-.08c-.04-.05-.04-.11,0-.17l.1-.31Z"/><path class="cls-1" d="M15.49,11.52c-.04-.09-.12-.19,.04-.24,.1,.06,.19,.13,.24,.24-.09,.12-.18,.04-.28,0Z"/><path class="cls-1" d="M18.88,12.16c.13,.01,.27-.18,.4,0-.13,.17-.27,.13-.4,0Z"/><path class="cls-1" d="M15.41,10.28l.32,.03s.01,.04,0,.06c-.1-.04-.26,.11-.31-.1Z"/><path class="cls-1" d="M11.39,2.98c-.37,.2-.74,.4-1.15,.48-.09,.02-.13,.09-.13,.17-.43,.21-.88,.37-1.35,.48-.39,.03-.33-.28-.36-.49-.02-.19,.12-.26,.32-.26,.12,0,.13-.02,.05-.25-.01-.06,0-.12,.03-.17,.31-.28,.74-.3,1.09-.5,.46,.23,1.03,.18,1.45,.53,.02,0,.04,0,.06,.01Z"/><path class="cls-1" d="M8.81,3.14c.16,.06,.21,.16,.12,.32-.09,.16-.17,.23-.26,0-.02-.04-.23,.07-.19,.12,.12,.17-.03,.48,.28,.55l-.42,.22c-.07,.06-.15,.1-.22,.16-.03,.02-.07,.03-.1,.04-.25,.08-.5,.15-.73,.26-.03,.02-.07,.03-.11,.04-.07,.02-.15,.02-.22,.03-.18-.02-.34,.08-.51,.07-.11,0-.23,0-.27-.12-.03-.1,.07-.17,.15-.21,.1-.06,.17-.13,.13-.25,0-.04,.01-.07,.04-.1,.66-.29,1.26-.7,1.92-.98,.13-.06,.26-.15,.42-.12Z"/><path class="cls-1" d="M12.26,3.22h.09l.08,.08c0,.32-.26,.38-.48,.48-.72,.47-1.48,.84-2.31,1.08-.41,.11-.78,.34-1.23,.29-.22-.02-.23-.17-.22-.34,.02-.04,.04-.07,.08-.08,.22,.28,.47,.03,.64-.03,.93-.31,1.85-.67,2.77-1.03,.23-.09,.47-.21,.59-.46Z"/><path class="cls-1" d="M8.08,4.42c.07-.07,.15-.09,.25-.09-.06,.13-.08,.26-.06,.4l-.04,.03c-.2-.05-.16-.2-.15-.34Z"/><path class="cls-1" d="M8.08,4.42c.13,.08,.06,.24,.15,.34,.01,.15,.06,.29,.18,.39,.03,.3,.23,.35,.47,.33,.02,.02,.03,.04,.03,.06,0,.02,0,.03-.01,.03-.23,.19-.48,.09-.73,.06-.21-.34-.18-.72-.2-1.1,0-.04,.02-.08,.06-.11,.02-.02,.04-.02,.06-.02Z"/><path class="cls-1" d="M11.95,3.78c.17-.16,.37-.27,.48-.48,.07,.33-.05,.44-.48,.48Z"/><path class="cls-1" d="M9.54,5.32l-.02,.1c-.06,.13-.19,.16-.3,.22-.09,.03-.18,.07-.27,0-.02-.06-.02-.11,.02-.16,.18-.08,.36-.19,.57-.16Z"/><path class="cls-1" d="M8.97,5.47v.17c.05,.05,.05,.1,0,.14v.02c-.09,.07-.18,.08-.23-.03-.05-.11,.07-.15,.13-.21,0-.02,.01-.05,.01-.07h.09Z"/><path class="cls-1" d="M9.05,2.15v-.15c.42,.07,.83,.2,1.21,.4l-.08,.06c-.13,.07-.26-.09-.39,0-.12,0-.24-.03-.36-.05-.14-.07-.33-.07-.38-.27Z"/><path class="cls-1" d="M9.78,2.42c.14-.06,.27,.02,.4,.05,.1,.13,.24,.1,.38,.11,.16,.06,.37,0,.5,.18,.08,.09,.27,.02,.28,.21l-1.47-.47c-.07,.03-.09,0-.08-.07Z"/><path class="cls-1" d="M11.05,2.76c-.18-.04-.35-.08-.5-.18,.18,.01,.41-.09,.5,.18Z"/><path class="cls-1" d="M8.03,4.5c0,.08,.03,.17,.09,.26,.6,.9,4.02-.47,4.04-.39,.02,.07-2.01,.79-3.99,1.42-.18,.06-.84,.27-1.72,.51-.48,.13-.74,.2-1.08,.26-.45,.09-1.09,.19-1.87,.21,.07-.6,.48-1.1,1.02-1.27,.64-.2,1.19,.14,1.26,.19,.62-.1,1.2-.36,1.81-.51,.1-.02,.19-.06,.24-.13,.04-.05,.04-.11,.05-.15,.01-.1,.05-.24,.15-.41Z"/><path class="cls-1" d="M4.14,6.67c-.08-.12-.19-.19-.32-.23-.06-.04-.13-.07-.17-.13-.03-.05-.05-.1-.05-.16,0-.08,.05-.14,.12-.19,.09-.05,.18-.07,.28-.06,.19,.05,.37-.03,.55-.04,.21-.02,.37,.03,.38,.28,.09,.14,.07,.26-.05,.38l-.08,.08c-.22,0-.43,.12-.65,.07Z"/><path class="cls-1" d="M4.87,6.52v-.33s.03-.08,.08-.08c.13,.05,.14,.19,.21,.28,0,.28-.2,.07-.3,.13Z"/><path class="cls-1" d="M5.25,.4V.95h-.14l-.02-.23,.02-.24,.14-.08Z"/><path class="cls-1" d="M3.65,5.78s0-.05,0-.07c-.17-.3-.18-.59-.02-.91,.16-.32-.03-.73,.23-1.03,.03-.03,.06-.06,.1-.08,.44-.07,.87-.06,1.28,.12,.11,.05,.23,.08,.33,.17,0,.29-.22,.22-.36,.18-.42-.15-.65,.03-.82,.39-.17,.35-.49,.63-.48,1.07,0,.15-.1,.2-.23,.2l-.05-.03Z"/><path class="cls-1" d="M3.87,3.85c-.08,.43,.02,.88-.23,1.29-.08,.14,0,.38,0,.58-.33-.17-.35-.45-.32-.77,.03-.32,.03-.63-.16-.91,0-.07,.01-.13,.06-.19,.21-.13,.43-.15,.64,0Z"/><path class="cls-1" d="M3.24,3.92l-.07,.11c-.11-.02-.21,.08-.32,0,.03-.22-.06-.43-.09-.64,.06,0,.16,.2,.17-.04,0-.09,.02-.18,.04-.28,.08,.18,0,.39,.12,.56,.12,.06,.11,.19,.16,.29Z"/><path class="cls-1" d="M3.72,6.03l-.05,.16c-.09,.06-.19,.12-.27,.19-.05,0-.1,.01-.15-.03h0l-.02-.32,.41-.26v.04c.08,.05,.15,.11,.08,.21Z"/><path class="cls-1" d="M3.25,6.36h.15c.09-.08,.2-.11,.31-.06l.1,.14c-.19-.02-.4,.08-.57-.08Z"/><g><path class="cls-1" d="M3.66,2.35c-.02,.12-.08,.2-.15,.26,.2-.13,.4-.27,.6-.4-.13,.08-.26,.14-.43,.13h-.02Z"/><path class="cls-1" d="M2.95,.96l.04-.05s-.05,0-.08,0c.01,.02,.02,.03,.04,.05Z"/><polygon class="cls-1" points="1.23 1.42 1.23 1.42 1.23 1.42 1.23 1.42"/><path class="cls-1" d="M4.22,2.15c.11-.07,.22-.15,.33-.22h0c-.11,.06-.22,.14-.33,.22Z"/><path class="cls-1" d="M10.44,1.21s.03,.02,.06,0c-.02,0-.04,0-.06,0Z"/><path class="cls-1" d="M10.36,1.17s-.09-.03-.14-.04c.05,0,.09,.02,.14,.04Z"/><g><polygon class="cls-1" points="1.23 1.42 1.23 1.42 1.23 1.42 1.23 1.42"/><path class="cls-1" d="M2.95,.96l.04-.05s-.05,0-.08,0c.01,.02,.02,.03,.04,.05Z"/><path class="cls-1" d="M3.66,2.35c-.02,.12-.08,.2-.15,.26,.2-.13,.4-.27,.6-.4-.13,.08-.26,.14-.43,.13h-.02Z"/><path class="cls-1" d="M4.22,2.15c.11-.07,.22-.15,.33-.22h0c-.11,.06-.22,.14-.33,.22Z"/><path class="cls-1" d="M10.44,1.21s.03,.02,.06,0c-.02,0-.04,0-.06,0Z"/><path class="cls-1" d="M10.36,1.17s-.09-.03-.14-.04c.05,0,.09,.02,.14,.04Z"/><path class="cls-1" d="M12.56,4.07c.08-.02,.14-.01,.13,.12,.28-.06,.55-.16,.79-.33h0c-.31,.05-.62,.11-.92,.21Z"/><path class="cls-1" d="M15.27,2.8c-.01-.06-.01-.1-.05-.16-.04-.07-.08-.11-.11-.14h0s-.69-.48-1.88-.82c-.11-.03-.08-.02-.14-.04-.37-.1-1.1-.3-3.23-.8-.66-.15-1.31-.3-1.95-.43-.45-.1-.83-.17-1.11-.21-.27-.04-.45-.07-.69-.09-.15-.02-.39-.04-.75-.08-.04,0-.45-.07-1,0-.02,0-.13,.02-.35,.05-.21,.03-.27,.04-.35,.06-.12,.02-.21,.04-.33,.07-.36,.08-.55,.12-.71,.18-.46,.16-.9,.4-1.34,.61h-.01c-.27,.13-.53,.25-.8,.36-.12,.05-.24,.11-.36,.15-.1,.03-.13,.08-.09,.18,.07,.2,.12,.43,.37,.24,.34-.25,.74-.07,1.07,.1l.56,.29,.2,.27s.07,.12,.11,.2c.09,.19,.24,.45,.29,.58,.15,.38,.26,.75,.26,.74-.07-.3-.02-.1-.02-.1,.22-.25-.01-.43-.09-.64,.06,.05,.09,.13,.11,.13,.02,0,.02-.04,.02-.05,0-.07-.07-.21-.17-.37,.1-.02,.19-.07,.28-.13,.08-.08,.18-.13,.28-.19-.12,.09-.21,.2-.19,.37,.11,.41,.39,.49,.72,.2,.15-.14,.27-.29,.51-.16,.09,.05,.21,0,.31-.05,.15-.07,.28-.02,.42,.05,.29,.14,.55,.07,.77-.15,.12-.12,.26-.19,.39-.28h0c.1,.31,.35,.32,.61,.31,.14-.11,.26-.25,.47-.28,.54-.07,.54-.08,.63-.61,.02-.1,.06-.2,.06-.31,0-.04-.02-.07-.03-.1,.18,.04,.35,.11,.54,.11,.08,0,.18,.02,.23-.04,.25-.28,.54-.16,.81-.08,.49,.15,.99,.24,1.47,.37,.94,.26,1.04,.18,2.11,.48,.24,.07,.45,.13,.62,.18-.13,.1-.2,.23-.17,.42h-.02c-.12,0-.25-.03-.34-.09-.41-.28-.9-.31-1.36-.4-.18-.04-.45-.13-.47,.23,.06,.1,.16,.14,.26,.18,.12,.03,.24,.04,.36,.05,.12,0,.22,.05,.33,.06,.09,.02,.22,0,.21,.16,0,.15,.06,.25,.19,.31-.13,.07-.25,.15-.39,.2-.29,.1-.51,.21-.38,.58,.16,.08,.28,.06,.34-.13,.02-.33,.26-.1,.39-.16,0,0,2.13-.38,2.32-.51s.15-.18,.23-.26c.03-.06,.07-.16,.08-.29,0-.18-.03-.28-.04-.33ZM1.23,1.42h0Zm1.72-.46s-.02-.04-.04-.05c.03,0,.05,0,.08,0l-.04,.05Zm.57,1.65c.07-.06,.13-.15,.15-.26h.02c.17,0,.3-.06,.43-.14-.2,.13-.4,.27-.6,.4Zm1.03-.69c-.11,.07-.22,.15-.33,.22,.11-.08,.21-.16,.33-.22h0Zm5.68-.8s.09,.02,.14,.04c-.04-.02-.09-.03-.14-.04Zm.21,.08s.04,.02,.06,0c-.03,.01-.04,0-.06,0Z"/></g></g><path class="cls-1" d="M3.09,3.14c.2,.33,.43,.35,.69,.06,.12-.13,.23-.34,.46-.12,.06,.05,.25,.02,.34-.04,.23-.17,.36-.02,.52,.1,.04,.35-.17,.5-.47,.56-.24,.05-.49,0-.73,.09l-.03,.06c-.22-.02-.43,0-.63,.07-.22,0-.15-.17-.16-.29v-.49Z"/><path class="cls-1" d="M5.58,4.05l-.31-.13c0-.18,.15-.19,.28-.22,.31-.06,.62-.08,.7-.5,.03-.17,.26-.24,.46-.14,.13-.33,.36-.46,.71-.4,.26,.04,.37-.09,.34-.34-.02-.18,0-.34,.16-.46,.2-.06,.35,.06,.5,.15-.1,.29,.17,.37,.3,.33,.26-.08,.49,.04,.73,.01,.13-.04,.23,0,.33,.09l.08,.07c-.26,.35-.71,.3-1.05,.48-.28,.35-.73,.41-1.1,.6-.44,.23-.91,.41-1.33,.68-.18,.01-.36-.06-.55-.05-.11-.02-.2-.07-.26-.17Z"/><path class="cls-1" d="M6.71,3.05c-.05,.01-.1,.02-.15,.04-.37,.14-.38,.19-.06,.45l-1.23,.37c-.45-.15-.91-.16-1.37-.13-.01,0-.03,0-.04-.01-.01-.02-.02-.04-.03-.06,.2-.05,.42-.05,.62-.07,.35-.04,.52-.23,.65-.51,.3,.03,.57,0,.74-.31,.07-.14,.24-.16,.39-.09,.09,.22,.39,.11,.48,.32Z"/><path class="cls-1" d="M6.39,2.65c0-.12,0-.23,.16-.24,.12,.2-.09,.17-.16,.24Z"/><path class="cls-1" d="M9.45,2.34c-.48,.1-.97,.29-1.31-.26,.08-.1,.19-.05,.29-.07,.02,0,.04,0,.06,.02,.09,.19,.25,.18,.41,.14h.15l.4,.18Z"/><path class="cls-1" d="M8.9,2.15c-.32,.23-.38,.21-.41-.14,.16-.02,.29,.06,.41,.14Z"/><path class="cls-1" d="M12.52,10.63l.08,.08-.16,.15c-.14,.11-.13,.34-.32,.41v-.09c-.14-.11-.32-.18-.36-.37,0-.04,0-.08,.01-.12,.03-.05,.07-.09,.13-.1,.16,.06,.27-.03,.39-.11,.13-.09,.3-.13,.23,.15Z"/><path class="cls-1" d="M15.24,11.35v.17c.03,.2-.16,.36-.08,.57l-.32-.17c.13-.19,.31-.34,.39-.57Z"/><path class="cls-1" d="M10.19,11.75c-.29,.03-.14,.26-.18,.4l-.31,.16-.02-.24c-.03-.08-.08-.15-.09-.24,0-.11,.02-.22,.09-.31,.03-.09-.07-.19,.04-.26,.29-.01,.39,.19,.47,.41,0,.03,0,.05,0,.07Z"/><path class="cls-1" d="M8.55,12.07c.07-.11,0-.21-.03-.31,.21-.23,.45-.14,.68-.04,.09,.12,.04,.23,0,.35-.06,.12-.21,.1-.3,.17-.14,0-.26-.06-.35-.17Z"/><path class="cls-1" d="M8.9,12.24l.23-.16c.14-.3,.15-.3,.33-.13v.05c-.11,.24-.33,.25-.56,.24Z"/><path class="cls-1" d="M9.67,11.85v.23l-.22-.07h0c-.09-.16,.02-.28,.08-.41h-.02v-.03c.21,0,.12,.19,.17,.29Z"/><path class="cls-1" d="M8.5,12.4l.08-.08c.07,0,.15,0,.12,.1,0,.04-.06,.1-.1,.1-.09,.02-.1-.06-.1-.13Z"/><path class="cls-1" d="M10.18,11.67c-.2-.09-.25-.34-.47-.41-.09-.08-.18-.15-.27-.23l.08-.08c-.03-.14,.08-.16,.16-.15,.39,.05,.79,.08,1,.51-.01,.17-.18,.19-.26,.29l-.24,.08Z"/><path class="cls-1" d="M9.2,11.74c-.23,.05-.46-.07-.69,.02l-.03-.09c.15-.14,.33-.21,.53-.27,.2-.06,.34-.02,.39,.2-.07,.04-.09,.15-.2,.14Z"/><path class="cls-1" d="M9.2,11.74c.05-.07,.09-.15,.2-.14,.04,0,.08-.01,.13-.02l-.08,.4c-.17-.22-.22,.03-.32,.08l.08-.33Z"/><path class="cls-1" d="M9.67,11.85c-.09-.08-.04-.23-.17-.29-.04-.04-.07-.11-.02-.14,.09-.04,.13,.07,.19,.11v.32Z"/><path class="cls-1" d="M10.66,11.35c-.32-.3-.66-.53-1.14-.4l-.15-.26c.07-.05,.14-.07,.22-.04,.28,.02,.55,.08,.83,.01,.18,0,.25-.16,.37-.25,.03-.02,.06-.04,.09-.06,.21-.06,.34,0,.24,.23-.06,.14-.02,.23,.03,.33,.04,.25-.05,.43-.31,.49-.07,0-.13,0-.18-.06Z"/><path class="cls-1" d="M9.61,10.71h-.23l-.02-.16s.01-.05,.01-.08c.21-.15,.17,.11,.26,.16,.02,.04,.02,.06-.02,.08Z"/><path class="cls-1" d="M9.09,13.02c-.06,0-.1-.01-.07-.06,.03-.04,.06-.08,.1-.11,.04-.03,.08,0,.06,.04-.02,.05-.07,.1-.09,.14Z"/><path class="cls-1" d="M10.66,11.35h.16c.13,.04,.27-.2,.4,0l.08,.25c-.3,.22-.59,.11-.88,0,0-.15,.09-.23,.24-.24Z"/><path class="cls-1" d="M11.79,10.79c.1,.13,.2,.27,.3,.4-.26-.16-.46,.14-.71,.09-.27-.02-.34-.17-.26-.41,.03-.02,.07-.03,.1-.03,.08,0,.18,.1,.25-.02,.1-.19,.21-.1,.32-.02Z"/><path class="cls-1" d="M11.15,10.87c-.09,.24,.14,.28,.24,.4l-.16,.08c-.13-.1-.27,.11-.4,0,.22-.09,.27-.26,.24-.48,.03-.02,.06-.03,.09,0Z"/><path class="cls-1" d="M9.69,10.62c.11-.27,.06-.68,.59-.58,.14,.03,.34-.2,.5-.32,.21-.16,.37-.37,.63-.48,.18-.07,.02-.28,.13-.38,.1-.06,.2-.05,.31-.03,.15,.07,.23,.19,.22,.36-.29,.16-.61,.28-.8,.59-.13,.21-.03,.24,.15,.25,.08,.03,.14,.09,.15,.18-.01,.04-.04,.07-.08,.1-.2,.11-.41-.03-.61,.04-.08,0-.16,0-.24-.01-.03,0-.07-.07-.11,0-.21,.4-.46,.49-.84,.29Z"/><path class="cls-1" d="M9.69,10.62c.29,.08,.54-.05,.81-.14l-.2-.19c.2-.2,.36-.04,.53-.06-.03,.09,.13,.13,.07,.23h-.07c-.13,.09-.23,.2-.33,.33-.3,.04-.6,.08-.89-.08l.02-.08s.04,0,.06-.01Z"/><path class="cls-1" d="M8.16,9.91c.09-.22,.17-.47,.5-.33,.12-.07,.19-.02,.23,.1-.09,.09-.2,.14-.33,.15l-.4,.08Z"/><path class="cls-1" d="M9.6,10.3s-.1-.08-.1-.11c0-.08,.06-.15,.15-.15,.03,0,.09,.06,.1,.09,.01,.09-.06,.13-.15,.17Z"/><path class="cls-1" d="M11.79,8.86c-.08,.12-.16,.02-.24,0v-.16h.09c.12-.01,.2,.02,.15,.16Z"/><path class="cls-1" d="M11.79,8.86l-.15-.18c.07-.09,.24-.06,.24-.22h.16c.1,.06,.22,.05,.34,.07,.19,.03,.24,.14,.14,.31-.19,.12-.06,.44-.32,.51-.15,.02-.12-.11-.16-.18-.08-.11-.1-.26-.24-.32Z"/><path class="cls-1" d="M12.51,8.84c.02-.35-.39-.18-.48-.39,.1-.01,.2-.03,.3-.04,.22-.03,.25-.04,.3-.05,.33-.04,.67,.1,.67,.16,0,.03-.11,.06-.55,.06l-.25,.26Z"/><g><polygon class="cls-1" points="8.65 9.42 8.65 9.42 8.65 9.41 8.64 9.42 8.65 9.42 8.65 9.42"/><path class="cls-1" d="M8.54,9.76s.04,.01,.06,.02c.05-.07,.13-.11,.2-.14l-.13-.06c-.11,.07-.23,.13-.34,.2,.06-.02,.13-.02,.2-.02Z"/><path class="cls-1" d="M11.61,8.71c-.02-.07-.06-.13-.13-.17-.06-.09-.16-.09-.26-.09-.1-.06-.2-.1-.32-.08-.07,.1,.09,.23-.04,.33-.34,.28-.63,.66-1.16,.51-.11,0-.19,.11-.3,.12,0-.02-.01-.05-.05-.07-.05-.01-.08-.04-.1-.05-.06-.05-.07-.11-.1-.24-.01-.05-.02-.09-.03-.13h0s.02,.14,0-.08h0c-.01-.21-.05-.46-.04-.64s.04-.32,.05-.49h0c.03-.15,.08-.4,.08-.4,0,0,.14-.56,.24-.81l-.24-.13h0l-.23-.21c0,.06-.02,.12-.03,.18-.06,.17-.28,.26-.23,.48-.03,.08-.11,.33-.09,.24s-.31,1.01-.4,1.53c0,.01,0,.02,0,.03-.14,.52-.05,1.05-.15,1.57,.46,.05,.83,.35,1.28,.41,.03-.02,.03-.05,.01-.08h0c.15-.04,.13,.18,.26,.19,.04,0,.07,0,.11-.03,.14-.13,.14-.39,.33-.43,.51-.11,.84-.49,1.25-.76,.21-.14,.32-.31,.31-.56,0-.06,0-.11-.01-.16Zm-3.28,1.06c.11-.07,.22-.13,.34-.2l.13,.06c-.08,.04-.15,.07-.2,.14-.02,0-.04-.01-.06-.02-.07,0-.14,0-.2,.02Zm.32-.36h0Z"/></g><path class="cls-1" d="M9.17,9.85s-.05,.04-.08,.04c-.03,0-.05-.04-.07-.07,.03-.02,.05-.05,.09-.05,.04,0,.07,.02,.07,.08Z"/><path class="cls-1" d="M8.89,8.85c-.09,.11-.21,.08-.33,.08,.06-.22,.18-.19,.33-.08Z"/><path class="cls-1" d="M8.98,6.03c-.76,.14-1.47,.43-2.21,.65-.28,.09-.51,.12-.7-.15-.1-.15-.25-.12-.39-.11,.18-.31,.42-.39,.74-.2,.03,.05,.06,.12,.12,.14,.02,0,.05,0,.05,0,.08-.02,1.54-.47,3.56-1.08,.12,.04,.18,.08,.19,.12,0,.12-.46,.25-1.38,.4l.03,.24Z"/><path class="cls-1" d="M9.21,5.55l.31-.14s.02,.04,.03,.06c-.01,.15-.15,.18-.24,.26-.14,0-.14-.08-.09-.18Z"/><path class="cls-1" d="M9.21,5.55c0,.07,.02,.14,.09,.18-.1,.09-.22,.07-.34,.05v-.14l.25-.09Z"/><path class="cls-1" d="M12.03,9.18l.16,.18c-.07,.11-.1,.25-.24,.3-.3-.02-.45,.17-.57,.41-.11,.05-.23,.13-.33,0-.09-.1,.03-.2,.07-.29,.13-.28,.42-.43,.63-.65,.09-.09,.17,.14,.28,.03Z"/><path class="cls-1" d="M13.4,8.67l-.02,.17-.23,.49c-.19,.15-.09,.41-.22,.58h-.06c-.26-.12-.17-.37-.21-.56l.73-.68Z"/><path class="cls-1" d="M11.38,10.07c-.24-.31,.16-.32,.24-.48,.08-.16,.24-.08,.33,.07l-.08,.16c-.04,.16-.07,.32-.21,.42-.03,.01-.07,.01-.1,0-.02-.09-.09-.13-.17-.17Z"/><path class="cls-1" d="M12.93,9.91l-.27,.38c-.16,.01-.28-.09-.42-.13-.08-.07-.12-.16-.08-.26,.08-.15,.22-.16,.36-.16,.03,0,.05,0,.08,0,.15-.06,.19,.12,.3,.15l.04,.03Z"/><path class="cls-1" d="M12.51,9.74l-.3,.18c-.09,.04-.08,.15-.14,.2-.08,.09-.17,.19-.3,.22-.08,0-.14-.04-.16-.12,.02-.17,.16-.27,.25-.4,.12,.13,.19,0,.26-.05,.12-.1,.25-.16,.38-.02Z"/><path class="cls-1" d="M12.89,9.88c-.14,.02-.2-.1-.3-.15-.12-.15-.04-.27,.07-.39,.13,.15,.08,.39,.23,.53Z"/><path class="cls-1" d="M12.28,10.15c.2-.15,.27,.03,.37,.15l-.14,.34c-.1-.29-.23-.03-.26,.01-.15,.2-.26,.09-.38-.02-.05-.05-.05-.1-.03-.16,.13-.14,.24-.29,.45-.32Z"/><path class="cls-1" d="M6.39,4.18c.55-.58,1.37-.64,2.02-1.04,.12-.08,.26-.11,.4-.17v.16c-.7,.37-1.39,.74-2.09,1.11-.06,.03-.16,.01-.24,.02-.08,.02-.1,0-.08-.08Z"/><path class="cls-1" d="M8.92,3.91s-.09,.06-.14,.06c-.08,0-.12-.06-.11-.13,0-.05,.05-.1,.11-.08,.07,.02,.11,.07,.13,.16Z"/><path class="cls-1" d="M8.03,4.5l-.03,.49c-.18,.25-.48,.23-.73,.29-.53,.14-1.04,.35-1.59,.41-.13,.01-.3,.16-.38-.05-.07-.17,.09-.26,.21-.35,.07-.05,.14-.08,.2-.14,.36-.31,.85-.23,1.26-.4h.21c0,.36-.37,.24-.48,.37,.27-.12,.61-.19,.94-.3-.16-.02-.34,.08-.47-.09,.24-.2,.55-.22,.84-.3,0,.02,0,.04,.01,.06Z"/><path class="cls-1" d="M6.97,4.75c-.39,.21-.85,.24-1.23,.47-.06,.06-.14,.05-.21,.07-.04,0-.07-.02-.11-.04-.08-.1-.05-.21-.03-.33,.24-.36,.66-.42,.99-.62,.04,0,.08,0,.11,.02,.08,.05,.3,.05,.08,.21-.1,.08-.22,.15-.35,.23,.27,.14,.51-.09,.75-.02Z"/><path class="cls-1" d="M6.49,4.33h-.08c-.26,.11-.49,.09-.58-.23,.2-.04,.38,.04,.57,.08l.08,.08s0,.04,0,.07Z"/><path class="cls-1" d="M5.51,5.26l.23-.04c-.06,.19-.35,.15-.38,.44,.9-.23,1.77-.46,2.64-.68,.03,.17-.07,.24-.22,.27-.69,.13-1.32,.51-2.03,.54-.28,.08-.57,.21-.86,.03-.09-.07-.12-.16-.09-.27,.02-.06,.05-.11,.11-.14,.2-.07,.4-.13,.61-.15Z"/><path class="cls-1" d="M4.85,5.55c.03,.08,.01,.18,.09,.25,.06,.07,.08,.15,.02,.23v.08l-.1,.08c0-.31-.2-.23-.39-.2-.17,.03-.35,.19-.5-.03,.15-.34,.41-.47,.88-.41Z"/><path class="cls-1" d="M4.96,6.03l-.02-.23h.81c-.21,.23-.51,.21-.79,.23Z"/><path class="cls-1" d="M4.85,5.55c-.27,.19-.66,.1-.88,.41l-.25,.07-.07-.21c.09-.06,.21-.07,.27-.18,.22-.41,.67-.45,1.03-.63,.16-.08,.34-.18,.52-.02l-.03,.23c-.11,.2-.34,.15-.49,.25l-.09,.08Z"/><path class="cls-1" d="M3.72,6.3c-.1,.06-.2,.1-.31,.05-.03-.24,.14-.16,.26-.15l.05,.1Z"/><path class="cls-1" d="M5.47,4.99c-.56,.12-1.03,.43-1.55,.65-.15-.03-.22-.1-.14-.25,.24-.43,.47-.86,.73-1.27,.09-.15,.26-.18,.46-.14,.2,.04,.39,.2,.61,.06l.25,.06c.17,.14,.37,.2,.58,.24-.11,.25-.38,.25-.57,.38-.12,.09-.31,.08-.37,.26Z"/><path class="cls-1" d="M11.62,10.22l.17,.09c0,.13,.07,.27,0,.4,0,.02,0,.05,0,.07-.22-.02-.38,0-.16,.29-.22,0-.34-.08-.41-.21-.04-.29,.09-.49,.33-.63h0s.04,0,.07-.01Z"/><path class="cls-1" d="M11.79,10.71c0-.13-.21-.26,0-.4,.06-.11,.14-.19,.25-.25,.26,.26-.14,.26-.16,.41v.15l-.08,.08Z"/><path class="cls-1" d="M11.55,10.23l-.33,.63s-.05,0-.07,0h-.09c-.16-.11-.04-.21,0-.33,.08-.27-.1-.06-.16-.08-.03-.08-.28-.08-.07-.23,.24,0,.49,0,.73,0Z"/><path class="cls-1" d="M10.5,10.79c.03-.19,.13-.3,.33-.32-.05,.17-.15,.28-.33,.32Z"/><path class="cls-1" d="M10.97,11.1s-.05,.05-.08,.06c-.06,0-.1-.04-.09-.1,0-.03,.05-.07,.08-.07,.06,0,.09,.04,.09,.12Z"/><path class="cls-1" d="M11.87,10.48c-.07-.18,.27-.21,.16-.41,.04-.08,.09-.14,.18-.15l.07,.23c-.12,.13-.21,.3-.41,.33Z"/><path class="cls-1" d="M7.18,4.74c.17,.03,.32-.03,.47-.07,.09-.02,.21-.13,.26,.05,.03,.13-.07,.21-.17,.23-.47,.09-.91,.29-1.49,.28,.34-.24,.74-.18,.94-.49h0Z"/><path class="cls-1" d="M4.94,5.47c.13-.16,.35-.13,.49-.25l.07,.04c-.16,.16-.35,.23-.57,.21Z"/></g></g></svg>