<?xml version="1.0" encoding="UTF-8"?><svg id="Layer_2" xmlns="http://www.w3.org/2000/svg" viewBox="0 0 197.17 255.54"><g id="Layer_1-2"><g><path d="M15.45,110.86s.1-.07,.15-.11c.07-.2-.21,.15-.15,.11Z"/><path d="M169.13,171.01c.07,.15,.04,.08-.04-.15,0,.04,.02,.11,.04,.15Z"/><path d="M19.5,106.74c-8.01,6.76-12.38,26.9-16.07,33.82-7.12,26.73-1.52,54.87,2.06,81.79h.2c-.06,1.67,.12,3.62,.2,5.28l-.2-.08,4.28,27.09c56.99,0,109.69,.92,166.67,.92l.33-20.68c-.05,0-.43-5.21-.48-5.21,.07-4.35-6.93-46.54-7.47-58.97,.03,.07,.05,.13,.07,.18-.61-2.67-1.78-7.19-2.57-12.88-.04-.02-.09-.02-.13-.02-.43-2.16-.87-4.38-1.29-6.48,.04,.06,.09,.11,.11,.18-3.51-6.51,1.03-25.44-3.31-25.38,.06-.44,.13-.92,.2-1.46,1.3,.94,2.73,.17,3.06-1.42,1.62-6.01,6.56-10.59,9.68-15.9,2.74-1.65,1.8-4.91,.48-8.08,3.28-8.31,10.59-13.91,14.25-21.87,1.72-7.81,5.4-14.56,7.39-22.31,1.46-6.11-5.69,1.63-6.58-12.34l.74-.55c-3.6-2.16,.17-1.96-1.62-4-.89-1.14-2.36-2.38-2.33-3.56,.1-2.11-1.31-1.72-2.31-2.31,1.94-.57,1.1-1.53,.72-2.98l-.37,.36v1.24c-1.76-.72-1.49-1.35-.83-2.77-.44-.17-.89-.34-1.32-.5,1.17-1.85-.99-1.99-1.43-3.07,.32-.59-.04-2.08-.67-2.12-1.89-.12-2.31-1.91-3.4-2.57,.56-.42,1.01-.76,1.46-1.1l-.22-.35c-.95-.17-1.9-.33-2.85-.5v-.34c.74-.48,1.61-.8,2.09-1.58-2.57,1.01,.1-1.22-3.74-.98,.6-.32,.88-.47,1.49-.79-2.76-.91-2.2,1.17-4.52-.58,.28-.45,.5-.79,.67-1.07-2.19-2.47-4.56-4.84-7.82-5.87-.85-.21-1.91-.68-2.31-1.36-1.64-2.9-4.64-3.62-7.57-4.25-1.64-.55-3.24-1.04-5.01-.55-3.04,.21-6.15-.84-9.21-.74-8.26,1.05-18.56,.77-24.81,6.97-4.32,5.36-9.76,10.07-11.09,17.05-2.65,3.22-4.05,7.21-6.81,10.58-1.59,1.77-2,4.72-3.99,5.71-.9,5.17-7.3,7.27-9.46,12.06-.69,1.03-1.74,2.25-1.64,3.28,.14,1.51-.45,2.1-1.48,2.77-.39,.25-.79,.66-.92,1.08-.3,1.41-1.54,1.51-2.44,2.39,.42,.6,.8,1.15,1.18,1.69l-.49,.44c-.3-.48-.5-1.16-.93-1.4-12.74,8.28-35.38,20.41-46.29,32.38m106.68,53.31c-.31,1.46-2.28,56.68-9.63,22.81-4.51-16.44-9.92-36.84-15.56-53.14,5.42,2.55,12.21,5.47,14.75-2.39,.38-1.29,1.04-1.56,2.16-1.38,2.2,.65,6.48-.09,6.71,2.98-.54,3.77,.61,6.76,2.2,10.1,0,2.61,.29,16.73-.62,21.01Zm23.7-4.31h0c-.03,.21-.04,.27,0,0Zm2.35,13.18c-.03-.22,.09-.02,.31,.47-.38-.46-.59-.73-.31-.47Zm9.48-48.48s-.02-.03,.02-.02l-.02,.02Z"/></g></g></svg>