<?xml version="1.0" encoding="UTF-8"?><svg id="Layer_2" xmlns="http://www.w3.org/2000/svg" viewBox="0 0 745.41 199.06"><defs><style>.cls-1{fill:#f6f6f6;}.cls-2{fill:#e6007e;}.cls-3,.cls-4{fill:#312783;}.cls-4{font-family:Poppins-Light, Poppins;font-size:41.81px;letter-spacing:.08em;}</style></defs><g id="Layer_1-2"><path class="cls-2" d="M0,0V178.14c11.04,3.14,22.66,4.82,34.65,4.82,73.02,0,132.22-62.1,132.22-138.71,0-15.48-2.43-30.36-6.89-44.26H0Z"/><text class="cls-4" transform="translate(225.51 151.23)"><tspan x="0" y="0">foiling</tspan></text><path class="cls-1" d="M132.47,81.03c-.28,11.41,5.52,21.34,18.68,21.65,6.48,.15,12.72-1.07,18.76-3.38,.55-.21,1.11-.39,1.97-.7,0,2.82,.03,5.45-.03,8.07,0,.3-.43,.74-.76,.87-11.18,4.41-22.54,5.71-33.77,.58-8.52-3.89-12.89-11.26-14.48-20.25-1.46-8.28-1.08-16.53,2.14-24.4,3.62-8.83,9.96-14.67,19.61-16.12,15.16-2.28,26.87,5.57,29.43,20.86,.6,3.55,.44,7.22,.72,10.83,.13,1.67-.58,2.01-2.1,2.01-12.58-.04-25.15-.02-37.73,0-.77,0-1.55,0-2.45,0Zm31.69-8.16c-.06-6.26-1.21-11.86-6.69-15.52-4.64-3.1-12.65-2.86-17.35,.49-5.1,3.63-6.96,8.91-7.52,15.03h31.56Z"/><path class="cls-1" d="M374.56,129.15c2.21,.16,4.13,.32,6.06,.43,6.04,.35,10.42-2.36,13.06-7.64,1.77-3.55,3.09-7.33,4.51-11.05,.21-.56-.03-1.39-.28-2.01-7.79-19.56-15.61-39.11-23.42-58.67-.22-.55-.41-1.11-.75-2.01,3.37,0,6.53-.03,9.69,.04,.32,0,.77,.55,.92,.93,6.06,16.34,12.09,32.7,18.12,49.06,.23,.61,.35,1.27,.63,2.34,.67-2.14,1.17-3.9,1.78-5.62,5.38-15.18,10.76-30.35,16.19-45.51,.19-.52,.8-1.24,1.23-1.26,3.07-.11,6.14-.06,9.43-.06-.18,.7-.26,1.21-.43,1.68-8.72,23.14-17.43,46.29-26.19,69.41-1.65,4.37-3.71,8.54-6.86,12.06-3.7,4.15-8.37,6.32-13.9,6.36-2.88,.02-5.77-.39-8.64-.7-.42-.05-1.08-.65-1.1-1.02-.1-2.22-.05-4.45-.05-6.77Z"/><path class="cls-1" d="M234.95,111.19c-14.54,.02-25.14-9.1-27.61-23.88-1.38-8.24-1.13-16.42,2.15-24.22,4.24-10.07,12.09-15.16,22.88-15.93,5.7-.41,11.24,.19,16.37,2.89,7.05,3.72,11.32,9.71,13.35,17.26,2.24,8.34,2.15,16.76-.37,25.03-3.68,12.09-13.37,18.83-26.76,18.85Zm-18.57-32.61c.43,3.52,.61,6.73,1.26,9.84,1.15,5.52,3.67,10.22,9,12.87,10.71,5.31,22.61-.03,25.66-11.53,1.63-6.17,1.73-12.43,.6-18.66-1.71-9.5-6.53-14.56-15.26-15.62-9.3-1.13-16.93,2.49-19.62,12.7-.91,3.47-1.14,7.11-1.64,10.4Z"/><path class="cls-1" d="M316.44,50.26c-1.03,2.85-1.97,5.44-2.87,7.94-3.43-.79-6.67-1.73-9.98-2.26-11.29-1.81-18.79,3.33-21.18,14.54-1.33,6.22-1.27,12.5,.23,18.69,2.44,10.07,9.95,14.98,20.57,13.36,4.08-.62,8.09-1.76,12.31-2.7,0,2.32,.09,4.84-.07,7.34-.03,.53-.88,1.21-1.5,1.46-6.97,2.85-14.2,3.24-21.52,1.81-8.75-1.71-14.89-6.83-18.03-15.1-1.41-3.72-2.18-7.79-2.6-11.77-.76-7.22-.04-14.37,2.92-21.12,4.13-9.43,11.63-14.21,21.67-15.2,5.64-.55,11.22,0,16.64,1.74,1.08,.35,2.13,.79,3.43,1.28Z"/><path class="cls-1" d="M376.12,102.12c0,2.31,.07,4.36-.05,6.4-.03,.48-.62,1.22-1.08,1.35-5.94,1.67-11.92,2.11-17.75-.31-5.55-2.3-7.95-6.97-8.72-12.61-.3-2.2-.36-4.45-.37-6.68-.04-10.76-.02-21.52-.02-32.27,0-.71,0-1.42,0-2.28h-8.59v-7.51h8.75v-14.21h9.34c.04,.68,.12,1.32,.12,1.96,.01,3.51,.06,7.01-.02,10.52-.03,1.38,.43,1.78,1.77,1.74,2.84-.09,5.68,.02,8.52-.05,1.08-.03,1.63,.35,1.99,1.36,.71,1.97,1.54,3.9,2.42,6.07h-14.53c-.05,.77-.13,1.4-.13,2.03,0,11.24-.04,22.48,.02,33.73,0,1.73,.21,3.51,.64,5.19,1.02,3.99,4.17,6.44,8.29,6.59,1.56,.06,3.14-.01,4.7-.17,1.49-.16,2.96-.5,4.72-.82Z"/><path class="cls-1" d="M195.27,110.08c-3.11,0-5.88,.04-8.65-.05-.37-.01-.82-.62-1.05-1.06-.17-.34-.04-.83-.04-1.25,0-27.69-.01-55.38-.02-83.07q0-2.46,2.48-2.46c1.75,0,3.51,.1,5.26-.03,1.61-.12,2.07,.48,2.07,2.06-.06,10.4-.03,20.8-.03,31.2,0,17.23-.01,34.46-.02,51.69,0,.9,0,1.79,0,2.97Z"/><path class="cls-1" d="M334.63,109.96h-9.28V48.33h9.28v61.63Z"/><path class="cls-1" d="M31.29,70.21c.03-2.49,2.02-4.51,4.48-4.53,2.49-.02,4.62,2.12,4.61,4.63,0,2.58-2.08,4.64-4.61,4.59-2.59-.05-4.51-2.07-4.48-4.69Z"/><path class="cls-1" d="M112.45,47.97c-1.6-.07-2.31,.52-2.85,2.03-5.99,16.81-12.06,33.59-18.14,50.46-.34-1.12-.65-2.33-1.07-3.5-5.57-15.69-11.18-31.36-16.7-47.07-.52-1.48-1.26-1.92-2.74-1.9-7.44,.07-14.87,.05-22.31,.08-1.15,0-2.3,.03-3.43,.19-2.28,.32-3.76,2.07-3.8,4.35-.05,2.85,1.82,4.69,4.99,4.72,5.5,.06,11,.04,16.5,.05,.54,0,1.09,0,1.63,.04,.13,.01,.26,.04,.39,.07h.28c2.15,0,3.91,1.76,3.91,3.91v.36c0,2.15-1.76,3.91-3.91,3.91h-5.74c-3.16,0-6.32,0-9.49,.02-2.75,.02-4.72,1.69-4.91,4.08-.24,2.98,1.69,5.14,4.72,5.15,7.07,.04,14.15,.02,21.22,.02,.16,0,.3,.02,.45,.03h.12c2.04,0,3.7,1.58,3.87,3.57,.16,.78,.07,1.52-.26,2.17-.02,.05-.04,.09-.07,.14,0,.01-.01,.03-.02,.04-.63,1.32-1.97,2.25-3.52,2.25h-1.04c-3.21,.21-6.47-.08-9.65,.33-3.65,.47-5.12,4.97-2.49,7.46,1.02,.96,2.76,1.49,4.22,1.59,.52,.03,1.04,.04,1.57,.06h9.47c2.15,0,3.91,1.76,3.91,3.91v.36c0,1.68-1.08,3.11-2.57,3.66-.56,.22-1.18,.33-1.86,.33-6.65,0-13.3,0-19.95,.02-2.96,.01-4.95,1.89-4.96,4.61-.01,2.72,1.98,4.65,4.93,4.66,14.21,.02,28.41,0,42.62,.02,1.17,0,1.7-.44,2.1-1.5,7.4-19.58,14.83-39.16,22.25-58.73,.2-.53,.33-1.07,.59-1.92-2.98,0-5.64,.09-8.28-.03Z"/><path class="cls-3" d="M494.11,0c-8.42,18.25-13.14,38.72-13.14,60.35,0,76.61,59.2,138.71,132.22,138.71s132.22-62.1,132.22-138.71c0-21.63-4.72-42.1-13.14-60.35h-238.16Z"/></g></svg>